<?xml version="1.0" encoding="UTF-8"?>
<svg width="374px" height="192px" viewBox="0 0 374 192" version="1.1" xmlns="http://www.w3.org/2000/svg" xmlns:xlink="http://www.w3.org/1999/xlink">
    <!-- Generator: Sketch 53.2 (72643) - https://sketchapp.com -->
    <title>Group 72</title>
    <desc>Created with Sketch.</desc>
    <defs>
        <polygon id="path-1" points="0 0.346435881 23.5521 0.346435881 23.5521 38.999912 0 38.999912"></polygon>
        <polygon id="path-3" points="0.283935294 0.740547304 25.6207059 0.740547304 25.6207059 82.3794669 0.283935294 82.3794669"></polygon>
        <polygon id="path-5" points="0.383556522 0.3255 17.5109478 0.3255 17.5109478 26.744975 0.383556522 26.744975"></polygon>
        <polygon id="path-7" points="0.566217391 0.3255 17.6936087 0.3255 17.6936087 26.744975 0.566217391 26.744975"></polygon>
        <polygon id="path-9" points="0.74966087 0.3255 17.8762696 0.3255 17.8762696 26.744975 0.74966087 26.744975"></polygon>
    </defs>
    <g id="Desktop" stroke="none" stroke-width="1" fill="none" fill-rule="evenodd">
        <g id="Khan-Academy" transform="translate(-496.000000, -2276.000000)">
            <g id="Group-33-Copy-3" transform="translate(495.000000, 2276.000000)">
                <g id="Group-72" transform="translate(-5.000000, -13.000000)">
                    <path d="M119,101.943904 C112.031526,102.46528 108.546908,99.3522252 108.546908,92.60626 L108.546908,84.5728155 C108.546908,82.9380058 108.181389,81.8694133 107.449589,81.3647579 C106.717789,80.8608626 105.567926,80.643496 104,80.7118981 L104,75.2351714 C105.567926,75.3050936 106.717789,75.0877269 107.449589,74.5830716 C108.181389,74.0791763 108.546908,73.0105837 108.546908,71.375014 L108.546908,63.3415695 C108.546908,56.6305653 112.031526,53.5349911 119,54.056367 L119,59.4814121 C117.327749,59.2724057 116.107828,59.447211 115.341761,60.0027879 C114.57417,60.5598849 114.191898,61.6725587 114.191898,63.3415695 L114.191898,71.375014 C114.191898,74.7137956 113.058788,76.9049422 110.794852,77.947694 C113.058788,79.0611278 114.191898,81.268995 114.191898,84.5728155 L114.191898,92.60626 C114.191898,94.2752708 114.57417,95.3887046 115.341761,95.9442816 C116.107828,96.5006185 117.327749,96.6921443 119,96.518099 L119,101.943904 Z" id="Fill-1" fill="#2DFFCC"></path>
                    <path d="M241,205.943904 C234.031526,206.46528 230.546908,203.352225 230.546908,196.60626 L230.546908,188.572816 C230.546908,186.938006 230.181389,185.869413 229.449589,185.364758 C228.717789,184.860863 227.567926,184.643496 226,184.711898 L226,179.235171 C227.567926,179.305094 228.717789,179.087727 229.449589,178.583072 C230.181389,178.079176 230.546908,177.010584 230.546908,175.375014 L230.546908,167.34157 C230.546908,160.630565 234.031526,157.534991 241,158.056367 L241,163.481412 C239.327749,163.272406 238.107828,163.447211 237.341761,164.002788 C236.57417,164.559885 236.191898,165.672559 236.191898,167.34157 L236.191898,175.375014 C236.191898,178.713796 235.058788,180.904942 232.794852,181.947694 C235.058788,183.061128 236.191898,185.268995 236.191898,188.572816 L236.191898,196.60626 C236.191898,198.275271 236.57417,199.388705 237.341761,199.944282 C238.107828,200.500618 239.327749,200.692144 241,200.518099 L241,205.943904 Z" id="Fill-3" fill="#2DFFCC"></path>
                    <path d="M318,54.0560959 C324.968474,53.53472 328.453092,56.6477748 328.453092,63.39374 L328.453092,71.4271845 C328.453092,73.0619942 328.818611,74.1305867 329.550411,74.6352421 C330.282211,75.1391374 331.432074,75.356504 333,75.2881019 L333,80.7648286 C331.432074,80.6949064 330.282211,80.9122731 329.550411,81.4169284 C328.818611,81.9208237 328.453092,82.9894163 328.453092,84.624986 L328.453092,92.6584305 C328.453092,99.3694347 324.968474,102.465009 318,101.943633 L318,96.5185879 C319.672251,96.7275943 320.892172,96.552789 321.658239,95.9972121 C322.42583,95.4401151 322.808102,94.3274413 322.808102,92.6584305 L322.808102,84.624986 C322.808102,81.2862044 323.941212,79.0950578 326.205148,78.052306 C323.941212,76.9388722 322.808102,74.731005 322.808102,71.4271845 L322.808102,63.39374 C322.808102,61.7247292 322.42583,60.6112954 321.658239,60.0557184 C320.892172,59.4993815 319.672251,59.3078557 318,59.481901 L318,54.0560959 Z" id="Fill-5" fill="#2DFFCC"></path>
                    <path d="M166,110.095716 C177.614553,109.205688 183.420698,114.522696 183.420698,126.047513 L183.420698,139.771539 C183.420698,142.564358 184.030362,144.389957 185.250445,145.252195 C186.469773,146.11289 188.385537,146.484957 191,146.366081 L191,155.722564 C188.385537,155.603688 186.469773,155.975755 185.250445,156.837994 C184.030362,157.698688 183.420698,159.524287 183.420698,162.317106 L183.420698,176.041904 C183.420698,187.506511 177.614553,192.79573 166,191.903387 L166,182.637218 C168.786497,182.993075 170.819968,182.695112 172.095886,181.744875 C173.374823,180.794637 174.013914,178.893389 174.013914,176.041904 L174.013914,162.317106 C174.013914,156.614908 175.901005,152.871079 179.675188,151.08948 C175.901005,149.188233 174.013914,145.415843 174.013914,139.771539 L174.013914,126.047513 C174.013914,123.196028 173.374823,121.294008 172.095886,120.343771 C170.819968,119.395077 168.786497,119.067781 166,119.3642 L166,110.095716 Z" id="Fill-7" fill="#2DFFCC"></path>
                    <path d="M150.195905,84.0246846 C150.195905,86.3000191 151.481387,87.4504171 154.050823,87.4766502 C156.620259,87.5021118 157.905741,86.4034083 157.905741,84.1797684 L157.803331,68.9753799 C157.803331,66.7000454 156.517849,65.5535051 153.948413,65.5357592 C151.378212,65.5195564 150.093494,66.6136305 150.093494,68.820296 L150.195905,84.0246846 Z M165.846384,84.20523 C165.828806,87.6533378 164.910932,90.4980846 163.091998,92.7386988 C161.273827,94.9793131 158.251186,96.0649 154.025603,95.9970026 C149.798491,95.927562 146.742222,94.7810218 144.856033,92.5581535 C142.969079,90.333742 142.016814,87.4982539 142,84.0501461 L142.15438,68.7940629 C142.17043,65.3467267 143.088304,62.5019799 144.907238,60.2613656 C146.725408,58.0207514 149.74805,56.9343929 153.973633,57.0030619 C158.200745,57.0717309 161.257014,58.2182711 163.143203,60.4426826 C165.030156,62.6655509 165.982422,65.5018105 166,68.9491468 L165.846384,84.20523 Z" id="Fill-9" fill="#2DFFCC"></path>
                    <polygon id="Fill-11" fill="#2DFFCC" points="181 94.5911392 172.095591 95 172.232934 66.0386452 167 66.0386452 167.136526 58 180.452263 58.2817104"></polygon>
                    <path d="M192.195905,84.0246846 C192.195905,86.3000191 193.481387,87.4504171 196.050823,87.4766502 C198.620259,87.5021118 199.905741,86.4034083 199.905741,84.1797684 L199.803331,68.9753799 C199.803331,66.7000454 198.517849,65.5535051 195.948413,65.5357592 C193.378212,65.5195564 192.093494,66.6136305 192.093494,68.820296 L192.195905,84.0246846 Z M207.846384,84.20523 C207.828806,87.6533378 206.910932,90.4980846 205.091998,92.7386988 C203.273827,94.9793131 200.251186,96.0649 196.025603,95.9970026 C191.798491,95.927562 188.742222,94.7810218 186.856033,92.5581535 C184.969079,90.333742 184.016814,87.4982539 184,84.0501461 L184.15438,68.7940629 C184.17043,65.3467267 185.088304,62.5019799 186.907238,60.2613656 C188.725408,58.0207514 191.74805,56.9343929 195.973633,57.0030619 C200.200745,57.0717309 203.257014,58.2182711 205.143203,60.4426826 C207.030156,62.6655509 207.982422,65.5018105 208,68.9491468 L207.846384,84.20523 Z" id="Fill-13" fill="#2DFFCC"></path>
                    <polygon id="Fill-15" fill="#2DFFCC" points="224 94.5911392 215.095591 95 215.232934 66.0386452 210 66.0386452 210.136526 58 223.452263 58.2817104"></polygon>
                    <path d="M234.195905,84.0246846 C234.195905,86.3000191 235.481387,87.4504171 238.050823,87.4766502 C240.620259,87.5021118 241.905741,86.4034083 241.905741,84.1797684 L241.803331,68.9753799 C241.803331,66.7000454 240.517849,65.5535051 237.948413,65.5357592 C235.378212,65.5195564 234.093494,66.6136305 234.093494,68.820296 L234.195905,84.0246846 Z M249.846384,84.20523 C249.828806,87.6533378 248.910932,90.4980846 247.091998,92.7386988 C245.273827,94.9793131 242.251186,96.0649 238.025603,95.9970026 C233.798491,95.927562 230.742222,94.7810218 228.856033,92.5581535 C226.969079,90.333742 226.016814,87.4982539 226,84.0501461 L226.15438,68.7940629 C226.17043,65.3467267 227.088304,62.5019799 228.907238,60.2613656 C230.725408,58.0207514 233.74805,56.9343929 237.973633,57.0030619 C242.200745,57.0717309 245.257014,58.2182711 247.143203,60.4426826 C249.030156,62.6655509 249.982422,65.5018105 250,68.9491468 L249.846384,84.20523 Z" id="Fill-17" fill="#2DFFCC"></path>
                    <polygon id="Fill-19" fill="#2DFFCC" points="266 94.5911392 257.095591 95 257.232934 66.0386452 252 66.0386452 252.136526 58 265.452263 58.2817104"></polygon>
                    <path d="M276.195905,84.0246846 C276.195905,86.3000191 277.481387,87.4504171 280.050823,87.4766502 C282.620259,87.5021118 283.905741,86.4034083 283.905741,84.1797684 L283.803331,68.9753799 C283.803331,66.7000454 282.517849,65.5535051 279.948413,65.5357592 C277.378212,65.5195564 276.093494,66.6136305 276.093494,68.820296 L276.195905,84.0246846 Z M291.846384,84.20523 C291.828806,87.6533378 290.910932,90.4980846 289.091998,92.7386988 C287.273827,94.9793131 284.251186,96.0649 280.025603,95.9970026 C275.798491,95.927562 272.742222,94.7810218 270.856033,92.5581535 C268.969079,90.333742 268.016814,87.4982539 268,84.0501461 L268.15438,68.7940629 C268.17043,65.3467267 269.088304,62.5019799 270.907238,60.2613656 C272.725408,58.0207514 275.74805,56.9343929 279.973633,57.0030619 C284.200745,57.0717309 287.257014,58.2182711 289.143203,60.4426826 C291.030156,62.6655509 291.982422,65.5018105 292,68.9491468 L291.846384,84.20523 Z" id="Fill-21" fill="#2DFFCC"></path>
                    <g id="Group-25" transform="translate(0.000000, 178.000000)">
                        <mask id="mask-2" fill="white">
                            <use xlink:href="#path-1"></use>
                        </mask>
                        <g id="Clip-24"></g>
                        <path d="M8.04285,27.131 C8.04285,29.3861176 9.30435,30.5262941 11.82585,30.5522941 C14.34735,30.5775294 15.60885,29.4885882 15.60885,27.2847059 L15.50835,12.2154118 C15.50835,9.96029412 14.24685,8.82394118 11.72535,8.80635294 C9.2031,8.79029412 7.94235,9.87464706 7.94235,12.0617059 L8.04285,27.131 Z M23.40135,27.3099412 C23.3841,30.7274118 22.48335,33.5468824 20.69835,35.7675882 C18.9141,37.9882941 15.94785,39.0642353 11.8011,38.9969412 C7.65285,38.9281176 4.6536,37.7917647 2.8026,35.5886471 C0.95085,33.384 0.01635,30.5737059 -0.00015,27.1562353 L0.15135,12.0357059 C0.1671,8.619 1.06785,5.79952941 2.85285,3.57882353 C4.6371,1.35811765 7.60335,0.281411765 11.7501,0.349470588 C15.89835,0.417529412 18.8976,1.55388235 20.7486,3.75852941 C22.60035,5.96164706 23.53485,8.77270588 23.5521,12.1894118 L23.40135,27.3099412 Z" id="Fill-23" fill="#2DFFCC" mask="url(#mask-2)"></path>
                    </g>
                    <polygon id="Fill-26" fill="#2DFFCC" points="40 214.591139 31.0955912 215 31.2329343 186.038645 26 186.038645 26.1365255 178 39.4522628 178.28171"></polygon>
                    <path d="M50.1959048,205.024685 C50.1959048,207.300019 51.4813871,208.450417 54.0508232,208.47665 C56.6202592,208.502112 57.9057415,207.403408 57.9057415,205.179768 L57.8033309,189.97538 C57.8033309,187.700045 56.5178486,186.553505 53.9484126,186.535759 C51.3782123,186.519556 50.0934943,187.61363 50.0934943,189.820296 L50.1959048,205.024685 Z M65.8463841,205.20523 C65.8288062,208.653338 64.9109321,211.498085 63.0919976,213.738699 C61.2738273,215.979313 58.2511862,217.0649 54.0256026,216.997003 C49.7984906,216.927562 46.7422221,215.781022 44.8560329,213.558153 C42.9690794,211.333742 42.0168137,208.498254 42,205.050146 L42.1543802,189.794063 C42.1704296,186.346727 43.0883037,183.50198 44.9072382,181.261366 C46.7254084,179.020751 49.7480495,177.934393 53.9736331,178.003062 C58.2007452,178.071731 61.2570137,179.218271 63.1432029,181.442683 C65.0301564,183.665551 65.9824221,186.501811 66,189.949147 L65.8463841,205.20523 Z" id="Fill-28" fill="#2DFFCC"></path>
                    <polygon id="Fill-30" fill="#2DFFCC" points="82 214.591139 73.0955912 215 73.2329343 186.038645 68 186.038645 68.1365255 178 81.4522628 178.28171"></polygon>
                    <path d="M92.1959048,205.024685 C92.1959048,207.300019 93.4813871,208.450417 96.0508232,208.47665 C98.6202592,208.502112 99.9057415,207.403408 99.9057415,205.179768 L99.8033309,189.97538 C99.8033309,187.700045 98.5178486,186.553505 95.9484126,186.535759 C93.3782123,186.519556 92.0934943,187.61363 92.0934943,189.820296 L92.1959048,205.024685 Z M107.846384,205.20523 C107.828806,208.653338 106.910932,211.498085 105.091998,213.738699 C103.273827,215.979313 100.251186,217.0649 96.0256026,216.997003 C91.7984906,216.927562 88.7422221,215.781022 86.8560329,213.558153 C84.9690794,211.333742 84.0168137,208.498254 84,205.050146 L84.1543802,189.794063 C84.1704296,186.346727 85.0883037,183.50198 86.9072382,181.261366 C88.7254084,179.020751 91.7480495,177.934393 95.9736331,178.003062 C100.200745,178.071731 103.257014,179.218271 105.143203,181.442683 C107.030156,183.665551 107.982422,186.501811 108,189.949147 L107.846384,205.20523 Z" id="Fill-32" fill="#2DFFCC"></path>
                    <polygon id="Fill-34" fill="#2DFFCC" points="124 214.591139 115.095591 215 115.232934 186.038645 110 186.038645 110.136526 178 123.452263 178.28171"></polygon>
                    <path d="M134.195905,205.024685 C134.195905,207.300019 135.481387,208.450417 138.050823,208.47665 C140.620259,208.502112 141.905741,207.403408 141.905741,205.179768 L141.803331,189.97538 C141.803331,187.700045 140.517849,186.553505 137.948413,186.535759 C135.378212,186.519556 134.093494,187.61363 134.093494,189.820296 L134.195905,205.024685 Z M149.846384,205.20523 C149.828806,208.653338 148.910932,211.498085 147.091998,213.738699 C145.273827,215.979313 142.251186,217.0649 138.025603,216.997003 C133.798491,216.927562 130.742222,215.781022 128.856033,213.558153 C126.969079,211.333742 126.016814,208.498254 126,205.050146 L126.15438,189.794063 C126.17043,186.346727 127.088304,183.50198 128.907238,181.261366 C130.725408,179.020751 133.74805,177.934393 137.973633,178.003062 C142.200745,178.071731 145.257014,179.218271 147.143203,181.442683 C149.030156,183.665551 149.982422,186.501811 150,189.949147 L149.846384,205.20523 Z" id="Fill-36" fill="#2DFFCC"></path>
                    <path d="M263.8052,164.709803 C263.8052,166.285698 264.715637,167.082077 266.536511,167.09894 C268.355831,167.117335 269.266268,166.356215 269.266268,164.817111 L269.194023,154.290961 C269.194023,152.715833 268.284363,151.920987 266.463489,151.90949 C264.642616,151.897992 263.732956,152.65528 263.732956,154.183653 L263.8052,164.709803 Z M274.891245,164.83474 C274.879592,167.221577 274.229391,169.191446 272.940642,170.742813 C271.653445,172.294181 269.511744,173.046103 266.517867,172.997815 C263.524767,172.950292 261.359761,172.15698 260.022848,170.61711 C258.685935,169.077239 258.011652,167.115036 258,164.727432 L258.108755,154.165258 C258.121184,151.778421 258.771385,149.809319 260.059358,148.257951 C261.347331,146.706584 263.488256,145.953895 266.481356,146.002183 C269.47601,146.049706 271.641016,146.843018 272.977152,148.382888 C274.313288,149.922758 274.988348,151.886495 275,154.272566 L274.891245,164.83474 Z" id="Fill-38" fill="#2DFFCC"></path>
                    <polygon id="Fill-40" fill="#2DFFCC" points="286 171.712109 280.276498 172 280.364726 151.648035 277 151.648035 277.088982 146 285.647842 146.198069"></polygon>
                    <path d="M292.805712,164.709803 C292.805712,166.285698 293.716107,167.082077 295.536897,167.09894 C297.356134,167.117335 298.26653,166.356215 298.26653,164.817111 L298.194288,154.290961 C298.194288,152.715833 297.283893,151.920987 295.463879,151.90949 C293.643089,151.897992 292.73347,152.65528 292.73347,154.183653 L292.805712,164.709803 Z M303.89125,164.83474 C303.878821,167.221577 303.22865,169.191446 301.940736,170.742813 C300.652822,172.294181 298.511995,173.046103 295.518255,172.997815 C292.524515,172.950292 290.359607,172.15698 289.023532,170.61711 C287.68668,169.077239 287.012429,167.115036 287,164.727432 L287.109527,154.165258 C287.121179,151.778421 287.77135,149.809319 289.060041,148.257951 C290.347178,146.706584 292.488782,145.953895 295.481745,146.002183 C298.475485,146.049706 300.640393,146.843018 301.977245,148.382888 C303.31332,149.922758 303.988348,151.886495 304,154.272566 L303.89125,164.83474 Z" id="Fill-42" fill="#2DFFCC"></path>
                    <polygon id="Fill-44" fill="#2DFFCC" points="316 171.712109 310.275744 172 310.363972 151.648035 307 151.648035 307.088228 146 315.647842 146.198069"></polygon>
                    <path d="M322.805712,164.709803 C322.805712,166.285698 323.716107,167.082077 325.536121,167.09894 C327.356134,167.117335 328.26653,166.356215 328.26653,164.817111 L328.194288,154.290961 C328.194288,152.715833 327.283893,151.920987 325.463879,151.90949 C323.643089,151.897992 322.732694,152.65528 322.732694,154.183653 L322.805712,164.709803 Z M333.89125,164.83474 C333.878821,167.221577 333.22865,169.191446 331.940736,170.742813 C330.652822,172.294181 328.511995,173.046103 325.518255,172.997815 C322.524515,172.950292 320.359607,172.15698 319.023532,170.61711 C317.68668,169.077239 317.011652,167.115036 317,164.727432 L317.109527,154.165258 C317.121179,151.778421 317.77135,149.809319 319.060041,148.257951 C320.347178,146.706584 322.488782,145.953895 325.481745,146.002183 C328.475485,146.049706 330.640393,146.843018 331.977245,148.382888 C333.31332,149.922758 333.988348,151.886495 334,154.272566 L333.89125,164.83474 Z" id="Fill-46" fill="#2DFFCC"></path>
                    <polygon id="Fill-48" fill="#2DFFCC" points="345 171.712109 339.275744 172 339.363972 151.648035 336 151.648035 336.088228 146 344.647842 146.198069"></polygon>
                    <path d="M351.805712,164.709803 C351.805712,166.285698 352.716107,167.082077 354.536121,167.09894 C356.356134,167.117335 357.26653,166.356215 357.26653,164.817111 L357.194288,154.290961 C357.194288,152.715833 356.283893,151.920987 354.463879,151.90949 C352.642312,151.897992 351.732694,152.65528 351.732694,154.183653 L351.805712,164.709803 Z M362.89125,164.83474 C362.878821,167.221577 362.22865,169.191446 360.939959,170.742813 C359.652822,172.294181 357.511218,173.046103 354.517478,172.997815 C351.524515,172.950292 349.359607,172.15698 348.022755,170.61711 C346.685904,169.077239 346.011652,167.115036 346,164.727432 L346.10875,154.165258 C346.121179,151.778421 346.77135,149.809319 348.059264,148.257951 C349.347178,146.706584 351.488005,145.953895 354.480969,146.002183 C357.475485,146.049706 359.640393,146.843018 360.976468,148.382888 C362.312543,149.922758 362.988348,151.886495 363,154.272566 L362.89125,164.83474 Z" id="Fill-50" fill="#2DFFCC"></path>
                    <path d="M36,69.9439041 C29.031526,70.46528 25.5469083,67.3522252 25.5469083,60.60626 L25.5469083,52.5728155 C25.5469083,50.9380058 25.181389,49.8694133 24.4495888,49.3647579 C23.7177886,48.8608626 22.5679257,48.643496 21,48.7118981 L21,43.2351714 C22.5679257,43.3050936 23.7177886,43.0877269 24.4495888,42.5830716 C25.181389,42.0791763 25.5469083,41.0105837 25.5469083,39.375014 L25.5469083,31.3415695 C25.5469083,24.6305653 29.031526,21.5349911 36,22.056367 L36,27.4814121 C34.327749,27.2724057 33.1078282,27.447211 32.3417606,28.0027879 C31.57417,28.5598849 31.1918977,29.6725587 31.1918977,31.3415695 L31.1918977,39.375014 C31.1918977,42.7137956 30.0587877,44.9049422 27.7948523,45.947694 C30.0587877,47.0611278 31.1918977,49.268995 31.1918977,52.5728155 L31.1918977,60.60626 C31.1918977,62.2752708 31.57417,63.3887046 32.3417606,63.9442816 C33.1078282,64.5006185 34.327749,64.6921443 36,64.518099 L36,69.9439041 Z" id="Fill-52" fill="#2DFFCC"></path>
                    <g id="Group-56" transform="translate(379.000000, 35.000000)">
                        <mask id="mask-4" fill="white">
                            <use xlink:href="#path-3"></use>
                        </mask>
                        <g id="Clip-55"></g>
                        <path d="M0.283935294,0.835687037 C12.0558176,-0.0496462963 17.9402294,5.24390926 17.9402294,16.7178907 L17.9402294,30.3813815 C17.9402294,33.1618815 18.5573471,34.9794278 19.7946412,35.837863 C21.0304059,36.6947611 22.9719941,37.065187 25.6209353,36.9468352 L25.6209353,46.2620481 C22.9719941,46.1436963 21.0304059,46.5141222 19.7946412,47.3717889 C18.5573471,48.228687 17.9402294,50.0470019 17.9402294,52.8275019 L17.9402294,66.4917611 C17.9402294,77.9057981 12.0558176,83.171687 0.283935294,82.2832796 L0.283935294,73.0572148 C3.10875882,73.4122704 5.16964118,73.1156222 6.46275882,72.1695759 C7.75893529,71.2227611 8.40587647,69.3306685 8.40587647,66.4917611 L8.40587647,52.8275019 C8.40587647,47.149687 10.3191706,43.4231407 14.1442294,41.6494 C10.3191706,39.7565389 8.40587647,36.0007889 8.40587647,30.3813815 L8.40587647,16.7178907 C8.40587647,13.8789833 7.75893529,11.9853537 6.46275882,11.0393074 C5.16964118,10.0940296 3.10875882,9.76817778 0.283935294,10.0640574 L0.283935294,0.835687037 Z" id="Fill-54" fill="#2DFFCC" mask="url(#mask-4)"></path>
                    </g>
                    <polygon id="Fill-57" fill="#2DFFCC" points="62 25.7128684 56.2764977 26 56.3639715 5.64820174 53 5.64820174 53.0882279 0 61.6478425 0.197307034"></polygon>
                    <g id="Group-61" transform="translate(64.000000, 0.000000)">
                        <mask id="mask-6" fill="white">
                            <use xlink:href="#path-5"></use>
                        </mask>
                        <g id="Clip-60"></g>
                        <path d="M6.23277391,18.63315 C6.23277391,20.1744 7.1499913,20.95365 8.98364348,20.9709 C10.8172957,20.9889 11.734513,20.24415 11.734513,18.73815 L11.6617304,8.43765 C11.6617304,6.89715 10.744513,6.1194 8.91086087,6.10815 C7.07642609,6.09615 6.1592087,6.83715 6.1592087,8.3334 L6.23277391,18.63315 Z M17.4013826,18.7554 C17.3888609,21.0909 16.7338174,23.0184 15.4362522,24.53565 C14.138687,26.0544 11.9810348,26.7894 8.96564348,26.7429 C5.94946957,26.6964 3.76833913,25.92015 2.42146957,24.4134 C1.07538261,22.90665 0.395295652,20.9859 0.383556522,18.64965 L0.493904348,8.31465 C0.505643478,5.9799 1.16068696,4.05315 2.45825217,2.5344 C3.75581739,1.01715 5.91346957,0.28065 8.92807826,0.32715 C11.9450348,0.37365 14.1261652,1.1499 15.4730348,2.6574 C16.8183391,4.1634 17.4992087,6.0849 17.5109478,8.4204 L17.4013826,18.7554 Z" id="Fill-59" fill="#2DFFCC" mask="url(#mask-6)"></path>
                    </g>
                    <polygon id="Fill-62" fill="#2DFFCC" points="91 25.7128684 85.2757436 26 85.3639715 5.64820174 82 5.64820174 82.0882279 0 90.6478425 0.197307034"></polygon>
                    <g id="Group-66" transform="translate(92.000000, 0.000000)">
                        <mask id="mask-8" fill="white">
                            <use xlink:href="#path-7"></use>
                        </mask>
                        <g id="Clip-65"></g>
                        <path d="M6.41543478,18.63315 C6.41543478,20.1744 7.33265217,20.95365 9.16630435,20.9709 C10.9999565,20.9889 11.9171739,20.24415 11.9171739,18.73815 L11.8443913,8.43765 C11.8443913,6.89715 10.9271739,6.1194 9.09352174,6.10815 C7.25908696,6.09615 6.34186957,6.83715 6.34186957,8.3334 L6.41543478,18.63315 Z M17.5840435,18.7554 C17.5715217,21.0909 16.9164783,23.0184 15.618913,24.53565 C14.3213478,26.0544 12.1636957,26.7894 9.14752174,26.7429 C6.13213043,26.6964 3.951,25.92015 2.60413043,24.4134 C1.25726087,22.90665 0.577956522,20.9859 0.566217391,18.64965 L0.675782609,8.31465 C0.688304348,5.9799 1.34334783,4.05315 2.64091304,2.5344 C3.93847826,1.01715 6.09613043,0.28065 9.11073913,0.32715 C12.1276957,0.37365 14.3088261,1.1499 15.6556957,2.6574 C17.001,4.1634 17.6818696,6.0849 17.6936087,8.4204 L17.5840435,18.7554 Z" id="Fill-64" fill="#2DFFCC" mask="url(#mask-8)"></path>
                    </g>
                    <polygon id="Fill-67" fill="#2DFFCC" points="120 25.7128684 114.275744 26 114.363972 5.64820174 111 5.64820174 111.088228 0 119.647842 0.197307034"></polygon>
                    <g id="Group-71" transform="translate(122.000000, 0.000000)">
                        <mask id="mask-10" fill="white">
                            <use xlink:href="#path-9"></use>
                        </mask>
                        <g id="Clip-70"></g>
                        <path d="M6.59809565,18.63315 C6.59809565,20.1744 7.51531304,20.95365 9.34974783,20.9709 C11.1826174,20.9889 12.0998348,20.24415 12.0998348,18.73815 L12.0270522,8.43765 C12.0270522,6.89715 11.1106174,6.1194 9.27618261,6.10815 C7.44174783,6.09615 6.52531304,6.83715 6.52531304,8.3334 L6.59809565,18.63315 Z M17.7667043,18.7554 C17.7549652,21.0909 17.0999217,23.0184 15.8015739,24.53565 C14.5040087,26.0544 12.3471391,26.7894 9.33096522,26.7429 C6.31557391,26.6964 4.13444348,25.92015 2.78757391,24.4134 C1.44070435,22.90665 0.7614,20.9859 0.74966087,18.64965 L0.859226087,8.31465 C0.870965217,5.9799 1.5267913,4.05315 2.82435652,2.5344 C4.12192174,1.01715 6.2787913,0.28065 9.29418261,0.32715 C12.3111391,0.37365 14.491487,1.1499 15.8383565,2.6574 C17.1844435,4.1634 17.8645304,6.0849 17.8762696,8.4204 L17.7667043,18.7554 Z" id="Fill-69" fill="#2DFFCC" mask="url(#mask-10)"></path>
                    </g>
                </g>
            </g>
        </g>
    </g>
</svg>