<?xml version="1.0" encoding="UTF-8"?>
<svg width="274px" height="192px" viewBox="0 0 274 192" version="1.1" xmlns="http://www.w3.org/2000/svg" xmlns:xlink="http://www.w3.org/1999/xlink">
    <!-- Generator: Sketch 53.2 (72643) - https://sketchapp.com -->
    <title>Group 6</title>
    <desc>Created with Sketch.</desc>
    <defs>
        <polygon id="path-1" points="9.37076301e-05 0.44275 130.349808 0.44275 130.349808 252.999742 9.37076301e-05 252.999742"></polygon>
    </defs>
    <g id="Desktop" stroke="none" stroke-width="1" fill="none" fill-rule="evenodd">
        <g id="Khan-Academy" transform="translate(-560.000000, -2058.000000)">
            <g id="Group-33-Copy-2" transform="translate(495.000000, 2058.000000)">
                <g id="Group-6" transform="translate(61.000000, -33.000000)">
                    <g id="Group-3">
                        <mask id="mask-2" fill="white">
                            <use xlink:href="#path-1"></use>
                        </mask>
                        <g id="Clip-2"></g>
                        <path d="M120.255275,22.5925837 C121.557939,29.4225296 120.279379,36.0996212 118.431755,42.6628629 C116.448939,49.7068046 113.537595,56.3765171 109.751171,62.6192921 C104.713435,70.9250712 98.7807072,78.4887171 90.8955552,84.2982296 C88.3164272,86.1978379 85.5800992,87.8391754 82.4151392,88.6034462 C78.5249632,89.5427087 77.3721632,88.1006087 76.5536752,84.7820921 C75.6062832,80.9449254 75.8850512,77.0318587 76.5169952,73.1746629 C77.0252752,70.0648712 77.4905872,66.9266171 78.6748272,63.9675712 C79.2941952,63.2033004 80.1116352,63.5543379 80.8431392,63.6270754 C84.6536672,64.0023587 88.3132832,63.3424504 91.7098512,61.6642171 C102.602763,56.2848046 105.597947,42.4056462 97.9947072,32.8928462 C97.5157712,32.2919712 96.8754432,31.7385337 97.4256432,30.8488171 C99.8297552,27.8265212 102.681363,25.2849254 105.771915,23.0026546 C108.390867,21.0682587 111.127195,19.3236129 114.319403,18.5277171 C117.853259,17.6464337 119.402203,18.1208087 120.255275,22.5925837 M55.2677472,22.0581212 C52.6404112,20.9090796 50.1587472,19.4458962 47.8238032,17.7592296 C47.0472352,17.1984129 46.6668112,16.3656212 46.4362512,15.4484963 C45.8766192,13.3686254 46.4593072,11.6018421 48.1224832,10.3178671 C49.6850512,9.11084625 51.4635072,8.91898792 53.2461552,9.91412125 C55.3159552,11.0684338 57.3847072,12.2301254 59.4136352,13.4550671 C61.8166992,14.9045462 62.4381632,17.3860546 61.1323552,20.0035504 C60.1136992,22.0433629 57.5429552,23.0532546 55.2677472,22.0581212 M51.5159072,36.3663254 C51.1344352,38.2849087 50.1283552,39.7343879 47.9789072,40.2403879 C46.8030512,40.6747046 45.5988992,40.4628171 44.4303792,39.7807712 C42.4632832,38.6327837 40.4678912,37.5332879 38.5081312,36.3726504 C35.9625392,34.8673004 35.2540912,32.1644171 36.7045232,29.6555004 C38.0092832,27.3995837 40.6994992,26.6985629 43.1308592,28.0363004 C45.2058992,29.1790171 47.2589312,30.3628462 49.2951952,31.5719754 C50.9363632,32.5439171 51.8827072,34.5215337 51.5159072,36.3663254 M46.7443632,107.929484 C45.2247632,111.750838 43.7313632,115.584842 42.2306272,119.413575 C34.8830992,121.440738 27.5376672,123.470009 20.1880432,125.48663 C19.5906832,125.65108 18.9901792,125.973655 18.3456592,125.640538 C24.3527952,111.581117 30.3620272,97.5206421 36.4519552,83.2672546 C37.4727072,84.7367629 37.9212512,86.1799171 38.5259472,87.5355754 C41.2758992,93.7119379 43.9765952,99.9104379 46.7129232,106.091017 C46.9948352,106.725625 47.0000752,107.28855 46.7443632,107.929484 M35.8325872,135.889146 C34.2375312,140.080513 32.5722592,144.24658 30.9688192,148.436892 C30.6638512,149.233842 30.2194992,149.866342 29.5749792,150.417671 C27.0430112,152.58293 24.5257152,154.767163 22.0241392,156.969317 C21.3785712,157.536459 21.0756992,157.470046 20.8482832,156.615117 C19.0970752,150.067688 17.3207152,143.527638 15.5537872,136.984425 C22.9254192,134.946721 30.2970512,132.909017 37.6686832,130.872367 C37.2788272,132.6265 36.4655792,134.224617 35.8325872,135.889146 M54.2501392,168.402809 C54.6389472,168.617859 55.0906352,168.760171 55.3295792,169.236655 C55.2090592,169.534984 55.0969232,169.832259 54.9680192,170.1211 C51.8554592,177.101792 48.7240352,184.075105 45.6502512,191.071609 C45.2362912,192.011925 44.8757792,192.05093 44.0499552,191.574446 C36.2696032,187.077371 28.4745792,182.60665 20.6648832,178.162284 C19.7667472,177.652067 19.5864912,177.299975 20.3525792,176.457696 C25.4856832,170.812634 30.5862992,165.138055 35.6617632,159.43923 C36.3178112,158.701313 36.8082752,158.702367 37.6267632,159.163038 C43.1518192,162.27283 48.7072672,165.32675 54.2501392,168.402809 M123.465299,10.1839879 C117.293627,5.78284208 110.465907,3.01776292 102.724331,3.18432125 C98.8739792,3.26654625 95.1483392,4.12252958 91.4541392,5.14717958 C87.9014192,6.13387958 84.3612752,7.16590875 80.7006112,7.71302125 C72.8888192,8.87998375 65.4689792,7.45685875 58.3216192,4.29962958 C55.7424912,3.16112958 53.2293872,1.87082958 50.6848432,0.650104583 C50.6586432,0.57842125 50.6282512,0.510954583 50.5947152,0.44243375 C47.6079152,1.26784625 44.6200672,2.09115042 41.6332672,2.91445458 C41.6479392,2.99562542 41.6626112,3.07574208 41.6772832,3.15691292 C36.0013152,7.40625875 32.1509632,13.0555379 29.3664272,19.4964962 C27.5146112,23.7869546 26.3230352,28.2365921 26.7579552,32.9761254 C27.0335792,35.9762837 28.3037552,38.2638254 31.1144912,39.7849879 C36.9969152,42.9685712 42.4349872,46.7941421 46.8166752,51.9648296 C46.5557232,52.3380046 46.3146832,52.7259379 46.0296272,53.0780296 C41.5148432,58.6535171 36.9770032,64.2089754 32.4894672,69.8055462 C31.2433952,71.3583337 29.8935712,72.8046504 29.0782272,74.7232337 C21.2748192,93.0857629 13.4064352,111.41983 5.5181392,129.744409 C5.0276752,130.885017 4.8599952,132.036167 4.9144912,133.20313 C5.6292272,148.293525 6.3816912,163.381813 7.1236752,178.4701 C7.2075152,180.179959 8.0469632,181.321621 9.5361712,182.169171 C20.4353712,188.370834 31.3115152,194.615717 42.1928992,200.849005 C42.5858992,201.073542 43.0281552,201.266455 43.1549632,201.765075 C43.8581712,204.508017 44.8600592,207.175059 45.2394352,210.000225 C43.4106752,210.477763 42.3930672,211.749088 41.9979712,213.524305 C41.5976352,215.323767 42.1195392,216.868121 43.5280512,218.083575 C43.8026272,218.320763 44.0583392,218.579034 44.3224352,218.826763 C43.0669312,219.65323 41.8460112,220.53873 40.5475392,221.293513 C29.9302512,227.468821 18.4515072,231.622238 6.9339872,235.657588 C2.6015552,237.175588 -0.1966048,240.946342 0.0108992,245.559375 C0.1020752,247.59708 0.9457152,249.467171 1.3691072,251.431084 C1.5745152,252.393538 2.1624432,252.825746 3.0804912,252.895321 C3.7606432,252.945921 4.4428912,253.001792 5.1251392,252.999684 C9.2385392,252.98598 13.2859152,252.30288 17.3175712,251.596588 C27.4119072,249.830859 37.3490432,247.328267 47.2578832,244.75083 C56.9518832,242.229263 66.6060592,239.549571 76.1963072,236.635855 C85.6953792,233.7506 95.1724432,230.817909 104.371787,227.051371 C107.278939,225.861217 110.170371,224.6173 112.758931,222.77778 C113.623531,222.164255 114.084651,221.481155 113.709467,220.345817 C113.263019,218.999646 112.969579,217.604984 112.562955,216.246163 C111.178547,211.623642 106.378707,208.639296 101.670043,209.610184 C96.2759872,210.72233 90.8714512,211.776496 85.4291872,212.604017 C77.1489392,213.863746 68.8634512,215.148775 60.4375312,214.391884 C61.3241392,210.831963 60.5727232,208.882809 57.9307152,207.620971 C56.8963392,207.126567 55.8200432,207.215117 54.7489872,207.116025 C54.2773872,205.347134 53.9210672,203.535021 53.2954112,201.822 C52.7609312,200.357763 53.1214432,199.374225 54.1380032,198.293705 C56.2319072,196.065196 58.1958592,193.712296 60.2132592,191.41105 C64.9690832,185.982092 69.7332912,180.561567 74.4754912,175.119959 C76.1596272,173.187671 76.2246032,171.375559 74.7982752,169.239817 C74.2491232,168.416513 73.4987552,167.854642 72.6446352,167.386592 C62.4517872,161.795292 52.2746592,156.174475 42.0577072,150.62745 C40.9216752,150.009709 40.7351312,149.498438 41.2098752,148.306175 C46.3576512,135.382092 51.3943392,122.41268 56.6070912,109.517059 C57.5471472,107.191567 57.3469792,105.179163 56.3974912,103.060288 C52.0420032,93.3345462 47.6959472,83.6066962 43.2974912,73.9020379 C42.8908672,73.0028337 42.9726112,72.4272587 43.5877872,71.7019921 C46.3356432,68.4625379 49.0342432,65.1798629 51.7517072,61.9140546 C52.7326352,62.6456462 52.8321952,63.8062837 53.0344592,64.8520171 C53.5752272,67.6445046 54.3496992,70.3726879 55.1032112,73.1082504 C56.2214272,77.1678462 58.0847712,80.8605921 60.5737712,84.2507921 C63.4421472,88.1585879 67.1059552,91.2293754 70.7550912,94.3497087 C74.9135552,97.9054129 79.5782032,98.9817171 84.7731392,97.6060296 C91.7622512,95.7549129 97.4319312,91.5856837 102.494819,86.6342629 C114.394859,74.9973171 122.380619,60.8904587 127.523155,45.1243421 C129.898971,37.8389962 131.037099,30.3259504 129.914691,22.6421296 C129.202051,17.7687171 127.632147,13.1535754 123.465299,10.1839879" id="Fill-1" fill="#45C6FF" mask="url(#mask-2)"></path>
                    </g>
                    <path d="M220.872698,202.719705 C205.781634,203.397623 192.060091,197.518466 182.300796,187.696011 C180.735477,186.119112 182.489224,183.516914 184.544034,184.362207 C191.202166,187.098094 198.565587,188.469722 206.287967,188.120236 C232.488902,186.933878 253.760188,165.662593 254.94444,139.460605 C255.292874,131.738224 253.922299,124.376909 251.185359,117.720882 C250.341118,115.666072 252.944369,113.911272 254.520215,115.476591 C264.342671,125.23694 270.221828,138.959535 269.542856,154.051652 C268.364919,180.26943 247.090476,201.54282 220.872698,202.719705 M181.230231,142.598612 L186.556737,134.933075 C186.97991,134.325685 187.076756,133.548815 186.814641,132.856159 L183.521892,124.122163 C182.862921,122.37789 184.490348,120.63467 186.276727,121.173637 L195.212835,123.872681 C195.921282,124.086372 196.68973,123.936893 197.268698,123.474772 L204.556327,117.642985 C206.013221,116.47768 208.173298,117.488242 208.212247,119.353572 L208.40699,128.685484 C208.42278,129.42551 208.801741,130.109745 209.420711,130.517128 L217.218884,135.646785 C218.776834,136.672085 218.483139,139.038485 216.723077,139.652191 L207.908025,142.721774 C207.208,142.964941 206.673244,143.53654 206.477448,144.251302 L204.008939,153.253729 C203.51629,155.051688 201.174101,155.503283 200.046692,154.017967 L194.403333,146.584017 C193.955948,145.99347 193.246449,145.661879 192.506423,145.695565 L183.18188,146.130317 C181.319708,146.216636 180.165983,144.130246 181.230231,142.598612 M219,93 C186.414627,93 160,119.414627 160,152 C160,184.584321 186.414627,211 219,211 C251.584321,211 278,184.584321 278,152 C278,119.414627 251.584321,93 219,93" id="Fill-4" fill="#45C6FF"></path>
                </g>
            </g>
        </g>
    </g>
</svg>