<?xml version="1.0" encoding="UTF-8"?>
<svg width="375px" height="193px" viewBox="0 0 375 193" version="1.1" xmlns="http://www.w3.org/2000/svg" xmlns:xlink="http://www.w3.org/1999/xlink">
    <!-- Generator: Sketch 53.2 (72643) - https://sketchapp.com -->
    <title>Group 21</title>
    <desc>Created with Sketch.</desc>
    <g id="Desktop" stroke="none" stroke-width="1" fill="none" fill-rule="evenodd">
        <g id="Khan-Academy" transform="translate(-95.000000, -2057.000000)" fill="#8EC753">
            <g id="Group-15-Copy" transform="translate(95.000000, 2057.000000)">
                <g id="Group-21" transform="translate(-12.000000, -20.000000)">
                    <path d="M15.9894967,169.94526 C14.4576846,169.69442 13.1761755,168.616322 12.6941873,167.130737 L0.200765603,128.631462 C-0.503599013,126.457859 0.704474219,124.128634 2.90031281,123.430379 C5.0961514,122.731099 7.44817069,123.928986 8.15563823,126.102589 L17.4096033,154.618447 L38.474346,110.372384 C39.2717984,108.700462 41.0921828,107.754438 42.9342876,108.055445 L92.5025253,116.160125 C94.7780057,116.531777 96.3191265,118.66033 95.9436722,120.912768 C95.5671836,123.166229 93.4168547,124.69072 91.1413742,124.319068 L44.6864075,116.724258 L20.4494383,167.628321 C19.7171473,169.164074 18.1139679,170.100883 16.4011518,169.991333 C16.2625543,169.982118 16.1249912,169.966761 15.9894967,169.94526" id="Fill-1"></path>
                    <polygon id="Fill-3" points="77.2020306 179 66.4764904 177.216379 61.9787165 167.854708 54.7265718 175.262395 44 173.478775 57.8698556 159.308496 49.5500054 142 60.2765773 143.783621 64.4896297 152.545904 71.2734282 145.61191 82 147.396569 68.5953958 161.092116"></polygon>
                    <path d="M309.87838,224.45546 C307.597646,225.432845 304.930925,225.082829 302.980297,223.499568 L252.445061,182.484214 C249.591039,180.168171 249.175043,176.000726 251.516831,173.179104 C253.85655,170.356458 258.071356,169.947083 260.924343,172.262102 L298.357774,202.641875 L287.920621,125.117371 C287.525321,122.185217 289.146878,119.353361 291.888105,118.177429 L365.654959,86.5470135 C369.041911,85.0947531 372.979386,86.6340058 374.446755,89.9826992 C375.915159,93.3324161 374.35983,97.2276261 370.972878,98.678863 L301.83993,128.321759 L313.847934,217.515518 C314.209085,220.208187 312.872103,222.843543 310.472365,224.164803 C310.277819,224.271241 310.080169,224.368468 309.87838,224.45546" id="Fill-5"></path>
                    <polygon id="Fill-7" points="400 183.828792 384.051381 190.66792 369.950681 182.167205 366.581734 198.160871 350.633115 205 357.075054 174.408032 331 158.691806 346.948619 151.851658 360.150108 159.806671 363.300439 144.839129 379.25009 138 373.023673 167.567884"></polygon>
                    <path d="M101.310304,37.1989366 C100.710689,35.7314644 100.989676,34.0425447 102.063987,32.8322373 L129.882588,1.46119182 C131.454496,-0.309367496 134.193363,-0.497138627 135.999495,1.04176826 C137.807709,2.58067514 137.998212,5.26661873 136.427345,7.03819854 L115.821822,30.2748761 L166.836992,25.0581042 C168.765962,24.8601281 170.592914,25.9428736 171.312244,27.7062895 L190.688348,75.1685046 C191.578402,77.3482825 190.496805,79.8229836 188.274273,80.6944865 C186.0507,81.56701 183.52732,80.5067154 182.637266,78.327958 L164.479131,33.8466096 L105.786597,39.8491629 C104.014818,40.0277495 102.311744,39.1307342 101.490397,37.5816223 C101.422732,37.4561014 101.363395,37.3285395 101.310304,37.1989366" id="Fill-9"></path>
                    <polygon id="Fill-11" points="126.850858 96 122.699517 85.5954445 128.479319 76.6663542 118.151341 74.197966 114 63.7944416 133.755367 68.5126306 144.439057 52 148.590398 62.4045555 143.182757 70.7644936 152.847631 73.0720345 157 83.47659 137.906709 78.9171861"></polygon>
                    <polygon id="Fill-13" points="254.29599 117 240.954546 111.88604 237.682925 98.8923449 226.340399 106.284547 213 101.170587 234.692385 87.0269709 228.638162 63 241.979606 68.1139597 245.045379 80.2776138 255.658556 73.3564884 269 78.4714767 248.033829 92.1409306"></polygon>
                    <path d="M289.948819,67.5552588 L295,69.5248229 L283.639456,82.7531466 C281.788587,84.8952273 279.93259,86.2229887 278.073518,86.7354039 C276.21342,87.2478192 274.189255,87.0157434 272,86.0412301 L273.720642,81.6143319 C274.814757,82.0415158 275.732501,82.1750107 276.472849,82.0158437 C277.214222,81.8556497 277.952519,81.3586377 278.68774,80.5309689 L278.268346,63 L283.477441,65.032204 L283.220062,76.0722373 L289.948819,67.5552588 Z" id="Fill-15"></path>
                    <polygon id="Fill-17" points="191 217.47204 176.22257 222.811277 163.937296 214.395243 160.033882 228.660763 145.25542 234 152.718466 206.712946 130 191.153438 144.778462 185.815221 156.281196 193.689371 159.929612 180.339237 174.710139 175 167.495896 201.373709"></polygon>
                    <path d="M184.108465,150.092228 L189.775353,148 L189.999113,167.58342 C190.0258,170.762694 189.449976,173.260104 188.272668,175.072539 C187.094333,176.88601 185.232399,178.194819 182.68584,179 L180.873175,173.99171 C182.100779,173.53886 182.966054,172.968912 183.467976,172.283938 C183.968871,171.598964 184.221371,170.633161 184.226503,169.388601 L171,154.929534 L176.845486,152.772021 L184.740742,162.265285 L184.108465,150.092228 Z" id="Fill-19"></path>
                </g>
            </g>
        </g>
    </g>
</svg>