<?xml version="1.0" encoding="UTF-8"?>
<svg width="369px" height="192px" viewBox="0 0 369 192" version="1.1" xmlns="http://www.w3.org/2000/svg" xmlns:xlink="http://www.w3.org/1999/xlink">
    <!-- Generator: Sketch 53.2 (72643) - https://sketchapp.com -->
    <title>Group 36</title>
    <desc>Created with Sketch.</desc>
    <defs>
        <polygon id="path-1" points="0 0.290086891 40.8887012 0.290086891 40.8887012 13.3323599 0 13.3323599"></polygon>
        <polygon id="path-3" points="0.219857479 0.158734285 34.2712821 0.158734285 34.2712821 42.7499018 0.219857479 42.7499018"></polygon>
        <polygon id="path-5" points="0.0834060839 0.343180147 139.156025 0.343180147 139.156025 120 0.0834060839 120"></polygon>
    </defs>
    <g id="Desktop" stroke="none" stroke-width="1" fill="none" fill-rule="evenodd">
        <g id="Khan-Academy" transform="translate(-901.000000, -1102.000000)">
            <g id="Group-36" transform="translate(895.000000, 1102.000000)">
                <g transform="translate(6.000000, -16.000000)">
                    <path d="M17.2790804,82.6807471 C19.4103422,82.9507327 21.2422294,83.7199705 22.7774151,84.9884603 C24.3117097,86.2587205 25.293587,87.926435 25.724829,89.9916038 C26.4010947,93.2376277 25.8308575,96.0021035 24.0141171,98.2832607 C22.1973768,100.564418 19.6990248,102.032078 16.520843,102.686239 C14.0554578,103.193458 11.7326319,103.085464 9.5550383,102.364027 C7.37566272,101.643475 5.59812622,100.28558 4.2224288,98.2912275 L9.63166393,93.4854834 C10.8603471,95.5108182 12.6770874,96.2747447 15.0827759,95.7808038 C16.4789662,95.4939994 17.4652985,94.9522577 18.0426637,94.156464 C18.6209199,93.3597851 18.8053561,92.4613084 18.5968631,91.457493 C18.3874791,90.4545627 17.8573366,89.7021438 17.0099996,89.1984657 C16.1617717,88.696558 15.0391171,88.5876785 13.6438177,88.8753681 L12.1736748,89.1781061 L8.61592879,85.7081269 L12.7902438,77.4182404 L1.38371638,79.7631319 L0,73.1241411 L20.0500771,69 L21.2493574,74.7546772 L17.2790804,82.6807471 Z" id="Fill-1" fill="#5140E3"></path>
                    <polygon id="Fill-3" fill="#5140E3" points="8.4553139 126.303401 14.619794 125 21 156.50937 13.9550057 158 9.11481905 134.097706 3.96557189 136.783721 1 130.979624"></polygon>
                    <path d="M29.5487278,137.651187 C30.8010778,143.821729 33.2429857,146.520896 36.877068,145.753137 C40.5111502,144.985377 41.7033246,141.519341 40.4509747,135.348799 C39.1994968,129.180927 36.7575889,126.479091 33.1217624,127.247739 C29.4876801,128.013719 28.29725,131.483314 29.5487278,137.651187 M46.5234764,146.33763 C44.9275152,149.753847 42.1812408,151.8703 38.2863977,152.693217 C34.3906824,153.516133 31.0452685,152.683431 28.2519003,150.195998 C25.4576599,147.709454 23.5643092,144.017449 22.571848,139.123541 C21.5776426,134.231412 21.8802648,130.077684 23.4762261,126.661467 C25.0713152,123.248809 27.8184616,121.129687 31.7133048,120.30677 C35.6098922,119.483853 38.9535618,120.316556 41.7478022,122.804878 C44.5420426,125.291421 46.4353933,128.982537 47.4287266,133.876445 C48.4211877,138.769464 48.1211819,142.924082 46.5234764,146.33763" id="Fill-5" fill="#5140E3"></path>
                    <g id="Group-9" transform="translate(0.000000, 105.000000)">
                        <mask id="mask-2" fill="white">
                            <use xlink:href="#path-1"></use>
                        </mask>
                        <g id="Clip-8"></g>
                        <path d="M39.8103761,5.66335 L2.20535435,13.304725 C1.47359348,13.4526 0.758767391,12.99235 0.608136957,12.27485 L0.0278978261,9.528225 C-0.123623913,8.810725 0.346984783,8.1081 1.07785435,7.95935 L38.6828761,0.317975 C39.414637,0.169225 40.129463,0.63035 40.2809848,1.34785 L40.8603326,4.094475 C41.0118543,4.811975 40.5412457,5.5146 39.8103761,5.66335" id="Fill-7" fill="#5140E3" mask="url(#mask-2)"></path>
                    </g>
                    <path d="M331.796576,22.979112 C335.698754,22.3027102 339.151868,22.9024884 342.15239,24.7810887 C345.152911,26.6588084 347.018863,29.6964514 347.748481,33.89666 C348.471924,38.0572357 347.634671,41.5546206 345.237607,44.3861725 C342.842307,47.2168436 339.614165,48.9827103 335.560241,49.6846533 C332.262402,50.2571288 329.240707,50.0501569 326.492508,49.0637376 C323.744309,48.078199 321.536045,46.2682957 319.868599,43.6349085 L326.925691,37.7357687 C328.396397,40.3665138 330.761701,41.3978504 334.021603,40.8324208 C335.801977,40.5241647 337.075941,39.8759463 337.840849,38.8860041 C338.605757,37.8960619 338.875725,36.7581567 338.652516,35.471408 C338.429308,34.18554 337.808206,33.2008821 336.793622,32.5200767 C335.776392,31.8392712 334.434494,31.6428681 332.767048,31.9308673 L320.317662,34.0877788 L318,10.9888331 L341.023114,7 L342.502642,15.5122702 L328.006444,18.0241165 L328.556083,23.5410188 L331.796576,22.979112 Z" id="Fill-10" fill="#5140E3"></path>
                    <polygon id="Fill-12" fill="#5140E3" points="323.904663 79.4017017 331.987707 78 339 118.397671 329.76198 120 324.443174 89.3560233 317.624422 92.5588894 314 85.0434393"></polygon>
                    <g id="Group-16" transform="translate(340.000000, 73.000000)">
                        <mask id="mask-4" fill="white">
                            <use xlink:href="#path-3"></use>
                        </mask>
                        <g id="Clip-15"></g>
                        <path d="M10.016641,22.70615 C11.4085641,30.7104208 14.5136923,34.2955458 19.3320256,33.4606292 C24.1512564,32.6257125 25.8644615,28.2074625 24.4734359,20.2031917 C23.0833077,12.1989208 19.9772821,8.61379583 15.1580513,9.44781667 C10.3397179,10.2827333 8.62561538,14.7018792 10.016641,22.70615 M32.0136923,34.6234208 C29.7692051,38.9583583 26.0636923,41.5706083 20.8971538,42.4655458 C15.7315128,43.3595875 11.361,42.1457333 7.78561538,38.8195042 C4.2084359,35.4950667 1.86971795,30.6584625 0.764974359,24.3096917 C-0.337974359,17.9591292 0.232794872,12.6181708 2.47728205,8.285025 C4.72266667,3.95187917 8.42728205,1.3378375 13.5929231,0.4429 C18.7585641,-0.451141667 23.1290769,0.764504167 26.7062564,4.08894167 C30.281641,7.41337917 32.6212564,12.2499833 33.726,18.59965 C34.8289487,24.9493167 34.2590769,30.2911708 32.0136923,34.6234208" id="Fill-14" fill="#5140E3" mask="url(#mask-4)"></path>
                    </g>
                    <path d="M364.579778,60.8257058 L316.625766,68.975113 C315.693413,69.1332113 314.806045,68.5215522 314.644626,67.6092471 L314.025409,64.1146693 C313.863989,63.2015003 314.488498,62.3332554 315.420852,62.1751571 L363.374863,54.024886 C364.306335,53.8667877 365.193702,54.4784468 365.356004,55.3916158 L365.974339,58.8853296 C366.13664,59.7984986 365.512131,60.6667436 364.579778,60.8257058" id="Fill-17" fill="#5140E3"></path>
                    <path d="M90.2133343,179.601815 C88.1492388,185.584482 88.8788277,189.205783 92.4029788,190.471984 C95.9280079,191.73729 98.7216922,189.379505 100.785788,183.396837 C102.850761,177.416856 102.121172,173.793765 98.5961432,172.528459 C95.0719921,171.262258 92.2783078,173.620939 90.2133343,179.601815 M100.421432,196.089298 C97.3055348,198.187395 93.8586446,198.557226 90.0816396,197.200582 C86.3028787,195.843938 83.842821,193.353622 82.7023446,189.727844 C81.5618682,186.102962 81.8103322,181.917513 83.4477368,177.171496 C85.0851413,172.427271 87.4617923,169.007452 90.5785677,166.91025 C93.6935872,164.813048 97.1413554,164.442321 100.91836,165.799861 C104.697121,167.15561 107.156301,169.646821 108.297655,173.271703 C109.438132,176.897481 109.189668,181.08293 107.552263,185.827156 C105.914859,190.572277 103.538208,193.992991 100.421432,196.089298" id="Fill-19" fill="#5140E3"></path>
                    <path d="M111.435497,202.539443 C110.309703,203.079188 109.168169,203.143995 108.00812,202.73664 C106.849922,202.328359 106.000021,201.560864 105.460269,200.436934 C104.921443,199.312079 104.85571,198.167781 105.26307,197.00867 C105.671356,195.848633 106.438859,194.999668 107.563727,194.459923 C108.689522,193.921103 109.832907,193.85537 110.991105,194.264577 C112.150228,194.671932 112.999203,195.439427 113.538955,196.564283 C114.077781,197.690064 114.145366,198.83251 113.736154,199.991621 C113.328795,201.151658 112.561292,202.000623 111.435497,202.539443" id="Fill-21" fill="#5140E3"></path>
                    <path d="M136.442274,192.239147 C138.141026,193.578179 139.318121,195.194685 139.978049,197.090454 C140.637079,198.984433 140.613734,200.939277 139.902629,202.951406 C138.784792,206.112811 136.846311,208.209972 134.083594,209.242889 C131.319979,210.2767 128.396545,210.251638 125.311496,209.168597 C122.917799,208.329017 120.971237,207.031158 119.467321,205.276811 C117.964302,203.521569 117.141862,201.424408 117,198.983538 L124.185579,197.628394 C124.184681,200.01914 125.351899,201.623114 127.686337,202.443003 C129.042107,202.919183 130.177002,202.962147 131.091922,202.572789 C132.006842,202.182536 132.638038,201.499594 132.982817,200.522172 C133.327595,199.54475 133.264745,198.618347 132.79696,197.743859 C132.328276,196.868475 131.416948,196.192694 130.062076,195.717409 L128.634478,195.217062 L127.381962,190.36665 L135.325335,185.353334 L124.252918,181.467813 L126.537075,175 L146,181.830318 L144.019319,187.436174 L136.442274,192.239147 Z" id="Fill-23" fill="#5140E3"></path>
                    <path d="M189.442918,38.3563876 C190.385231,44.5752403 192.707546,47.3990028 196.412507,46.8285637 C200.117467,46.2581246 201.498351,42.8630344 200.55692,36.6432932 C199.615488,30.423552 197.293172,27.598901 193.588212,28.1702286 C189.883251,28.7406678 188.501487,32.1357579 189.442918,38.3563876 M206.109517,47.9267923 C204.322646,51.2490226 201.44375,53.2144608 197.471948,53.8266611 C193.500145,54.4388613 190.170348,53.4294862 187.482557,50.7976471 C184.795645,48.1684736 183.076586,44.3859825 182.330662,39.4519506 C181.582977,34.5188073 182.10345,30.3915648 183.890321,27.0711115 C185.677192,23.7515468 188.556969,21.78522 192.528771,21.1730198 C196.500573,20.5617081 199.828609,21.5701947 202.517281,24.2002567 C205.205954,26.8312072 206.923252,30.6128099 207.669176,35.5477302 C208.416861,40.479985 207.897268,44.6072275 206.109517,47.9267923" id="Fill-25" fill="#5140E3"></path>
                    <path d="M219.112701,49.155212 C218.373211,50.1614964 217.394639,50.7572983 216.178837,50.9444709 C214.962108,51.1297903 213.85102,50.8508846 212.844648,50.1133133 C211.838275,49.3729623 211.241494,48.3954024 211.056158,47.1787805 C210.869896,45.9630852 211.146973,44.8502422 211.887389,43.8448844 C212.627805,42.8386 213.605451,42.2418715 214.821253,42.0556255 C216.037982,41.8703061 217.149069,42.1482852 218.155442,42.8858565 C219.161815,43.6271341 219.757669,44.6046939 219.943932,45.8203893 C220.130194,47.0370112 219.85219,48.1489276 219.112701,49.155212" id="Fill-27" fill="#5140E3"></path>
                    <path d="M232.572886,26.5392855 C235.630488,26.06455 238.313385,26.596612 240.62422,28.1354714 C242.935055,29.6743307 244.343068,32.1169789 244.845615,35.4616244 C245.343754,38.7785023 244.636662,41.5418208 242.720811,43.7506841 C240.806724,45.9613389 238.261367,47.3111999 235.087385,47.8038498 C232.50588,48.2042399 230.150961,47.9919525 228.023512,47.1643006 C225.894299,46.3384401 224.200627,44.867656 222.940733,42.7483654 L228.539284,38.1774693 C229.646651,40.2895941 231.474336,41.1468051 234.025864,40.7499979 C235.420653,40.5332319 236.423984,40.0387905 237.03762,39.2657779 C237.649493,38.4918696 237.879607,37.5925594 237.724435,36.5669518 C237.570144,35.5431355 237.101982,34.7513127 236.319948,34.1932746 C235.537032,33.637028 234.494027,33.459674 233.188286,33.6621084 L223.441517,35.1749917 L222,16.7982519 L240.02469,14 L241.043891,20.7815508 L229.695142,22.5434463 L230.036345,26.9325097 L232.572886,26.5392855 Z" id="Fill-29" fill="#5140E3"></path>
                    <path d="M97.6246373,60.2599685 C98.5200829,66.3184798 97.9851298,72.5439754 96.0865358,78.3626688 L65.4197473,67.0787914 C65.6182407,65.7082764 65.4108462,64.340426 64.8669921,63.1200193 L91.3013312,43.932809 C94.5867088,48.8259829 96.7630156,54.4261755 97.6246373,60.2599685 M163.474607,102.973317 L150.659765,89.6225643 C149.698452,88.6215466 148.017933,88.9706149 147.537277,90.2709609 L145.254157,96.4529341 L98.5165225,79.2562126 C100.562874,73.0333816 101.141442,66.3682198 100.183689,59.8824773 C99.2606503,53.637441 96.9232345,47.6446576 93.3939681,42.4139622 L132.56838,13.9804387 L136.451909,19.3088377 C137.269025,20.4297644 138.981587,20.3089673 139.633144,19.0858958 L148.32413,2.75784819 C149.059356,1.37756281 147.879077,-0.241652273 146.336525,0.0301413723 L128.092042,3.25347189 C126.724841,3.49506624 126.083075,5.08319382 126.900192,6.20500877 L130.78461,11.5325195 L63.0832216,60.6721 C62.4209835,60.0787727 61.6412514,59.5946958 60.7555969,59.2687211 C57.0002438,57.8866593 52.8345523,59.8043144 51.4495489,63.5508033 C50.0645455,67.2981804 51.9871723,71.4550244 55.7416353,72.8370862 C59.0083208,74.0397287 62.5838727,72.7429355 64.3712036,69.9184133 L144.203833,99.2925559 L141.919824,105.474529 C141.439167,106.775763 142.489491,108.13029 143.872714,107.989953 L162.305899,106.137137 C163.865363,105.9817 164.558755,104.102238 163.474607,102.973317" id="Fill-31" fill="#5140E3"></path>
                    <g id="Group-35" transform="translate(207.000000, 104.000000)">
                        <mask id="mask-6" fill="white">
                            <use xlink:href="#path-5"></use>
                        </mask>
                        <g id="Clip-34"></g>
                        <path d="M47.8178471,87.3027556 C51.5782293,93.3463111 53.8895669,100.223644 54.5583567,107.296533 L16.6290573,109.3952 C16.2063822,107.844089 15.3512229,106.482311 14.2080382,105.432533 L33.5173376,72.8209778 C39.2858726,76.5205333 44.1983567,81.4840889 47.8178471,87.3027556 M137.818229,102.487644 L117.970331,94.1658667 C116.482051,93.5418667 114.851987,94.6867556 114.941159,96.2938667 L115.36651,103.9312 L57.5625605,107.130311 C56.8643439,99.5587556 54.3969554,92.1916444 50.3726242,85.7240889 C46.4981019,79.4947556 41.2298217,74.1863111 35.0457452,70.2396444 L63.6628153,21.9098667 L70.2713503,25.7978667 C71.6615414,26.6165333 73.4316051,25.6992 73.5600127,24.0956444 L75.2712229,2.6992 C75.4156815,0.889422222 73.4075287,-0.291911111 71.8880382,0.708977778 L53.9243439,12.5427556 C52.5769554,13.4298667 52.6277834,15.4174222 54.0179745,16.2352 L60.6265096,20.1232 L11.1708408,103.646756 C10.1908408,103.319644 9.13504459,103.162311 8.03912102,103.222756 C3.39504459,103.479644 -0.161133758,107.440533 0.0965732484,112.069867 C0.354280255,116.6992 4.32867516,120.244089 8.97275159,119.9872 C13.0131338,119.764089 16.226,116.735644 16.8243439,112.904533 L115.562688,107.439644 L115.987146,115.077867 C116.07721,116.684978 117.824089,117.6432 119.233898,116.8592 L138.035809,106.396978 C139.625745,105.512533 139.496446,103.191644 137.818229,102.487644" id="Fill-33" fill="#5140E3" mask="url(#mask-6)"></path>
                    </g>
                </g>
            </g>
        </g>
    </g>
</svg>