<?xml version="1.0" encoding="UTF-8"?>
<svg width="375px" height="192px" viewBox="0 0 375 192" version="1.1" xmlns="http://www.w3.org/2000/svg" xmlns:xlink="http://www.w3.org/1999/xlink">
    <!-- Generator: Sketch 53.2 (72643) - https://sketchapp.com -->
    <title>Group 35</title>
    <desc>Created with Sketch.</desc>
    <defs>
        <polygon id="path-1" points="0 0.0694477766 31.777954 0.0694477766 31.777954 30.8483056 0 30.8483056"></polygon>
    </defs>
    <g id="Desktop" stroke="none" stroke-width="1" fill="none" fill-rule="evenodd">
        <g id="Khan-Academy" transform="translate(-895.000000, -2058.000000)">
            <g id="Group-36-Copy" transform="translate(895.000000, 2058.000000)">
                <g id="Group-35" transform="translate(-13.000000, -70.000000)">
                    <g id="Group-3" transform="translate(0.000000, 170.000000)">
                        <mask id="mask-2" fill="white">
                            <use xlink:href="#path-1"></use>
                        </mask>
                        <g id="Clip-2"></g>
                        <path d="M31.7556267,2.19655667 L30.87456,7.81995667 C30.75616,8.57945667 30.16416,9.18912333 29.3876267,9.34929 L16.41696,12.04319 C14.69856,12.4007233 14.3508267,14.6265233 15.8804267,15.4614567 L27.4420267,21.76479 C28.1332267,22.1409233 28.5118933,22.8921567 28.3934933,23.65269 L27.51136,29.2750567 C27.3054933,30.5915233 25.77696,31.2704233 24.6132267,30.5646567 L0.894826667,16.1703233 C0.25056,15.7797233 -0.09184,15.0543233 0.0212266667,14.3268567 L0.924693333,8.56499 C1.03882667,7.83752333 1.58816,7.24439 2.32309333,7.05632333 L29.3812267,0.131956667 C30.7102933,-0.206976667 31.9614933,0.882156667 31.7556267,2.19655667" id="Fill-1" fill="#5140E3" mask="url(#mask-2)"></path>
                    </g>
                    <path d="M34.957343,215.989105 L31.0914504,215.47968 C30.1804736,215.359136 29.7040432,214.332947 30.1993214,213.559375 L62.8238108,162.578008 C63.0866329,162.167113 63.5609691,161.946991 64.042635,162.010931 L67.9095747,162.519309 C68.8195044,162.639852 69.2959349,163.666041 68.8006566,164.439614 L36.1761672,215.422028 C35.9133451,215.831875 35.4390089,216.053046 34.957343,215.989105" id="Fill-4" fill="#5140E3"></path>
                    <path d="M67.9893849,192.285992 L91.1256316,206.78183 C91.755154,207.175241 92.0902055,207.904821 91.9788685,208.638563 L91.0975373,214.440854 C90.9872408,215.174596 90.4503259,215.771998 89.7323582,215.961418 L63.3371627,222.936656 C62.0416994,223.279069 60.8201139,222.183139 61.0219773,220.857198 L61.8814574,215.194371 C61.997997,214.428364 62.5754927,213.816392 63.3309195,213.652991 L75.9848389,210.939705 C77.6611372,210.580639 78.0013915,208.337781 76.5082269,207.496839 L65.2298919,201.150226 C64.5545861,200.769305 64.1862375,200.012665 64.3017366,199.247699 L65.1612167,193.583831 C65.3630801,192.259973 66.8541636,191.574105 67.9893849,192.285992" id="Fill-6" fill="#5140E3"></path>
                    <path d="M306.317534,103.982879 L309.737943,112.873479 C310.201091,114.073725 309.872507,115.435885 308.913874,116.293502 L292.892507,130.643187 C290.770789,132.544361 292.12581,136.063621 294.971456,136.045863 L316.466104,135.918422 C317.751235,135.91111 318.907018,136.699783 319.369123,137.901075 L322.789532,146.790629 C323.590652,148.87043 322.000929,151.089163 319.778028,150.997238 L274.468821,149.128446 C273.23689,149.077261 272.154125,148.300078 271.710797,147.147883 L268.206938,138.041051 C267.76361,136.889901 268.046297,135.58415 268.923565,134.720265 L301.265677,102.888138 C302.853314,101.327504 305.517457,101.905168 306.317534,103.982879" id="Fill-8" fill="#5140E3"></path>
                    <path d="M347.686564,163.392919 L341.811019,165.843123 C340.426481,166.419703 338.925707,165.331657 339.002854,163.808813 L344.047265,63.428192 C344.087381,62.6216099 344.580096,61.9116495 345.312482,61.6070807 L351.189055,59.1568773 C352.572565,58.5802971 354.073339,59.6683429 353.99722,61.1911868 L348.95281,161.572858 C348.911664,162.37839 348.41895,163.08835 347.686564,163.392919" id="Fill-10" fill="#5140E3"></path>
                    <path d="M375.222208,102.002761 L420.531935,103.868419 C421.761795,103.919604 422.845615,104.697832 423.288948,105.848982 L426.792848,114.955814 C427.236181,116.108009 426.954534,117.412716 426.076212,118.277645 L393.734772,150.111862 C392.14816,151.672496 389.482943,151.094832 388.682856,149.017121 L385.262408,140.126521 C384.800298,138.926274 385.127843,137.564115 386.085444,136.706497 L402.108038,122.355768 C404.230823,120.455639 402.875787,116.936378 400.029065,116.954136 L378.53417,117.081577 C377.249024,117.088889 376.093228,116.300216 375.631118,115.098924 L372.209626,106.208325 C371.410583,104.130613 372.999282,101.910836 375.222208,102.002761" id="Fill-12" fill="#5140E3"></path>
                    <path d="M176.203759,240.052556 L178.00685,244.769285 C178.251214,245.406426 178.07756,246.129497 177.572195,246.584298 L169.124494,254.19855 C168.005621,255.207706 168.719995,257.074067 170.221531,257.065684 L181.554802,256.997569 C182.231741,256.993377 182.84213,257.412548 183.084414,258.049689 L184.889585,262.766418 C185.310722,263.869887 184.472607,265.047759 183.300701,264.998507 L159.411302,264.006118 C158.762439,263.97992 158.190524,263.567036 157.956559,262.956093 L156.109794,258.124092 C155.874789,257.51315 156.024527,256.820469 156.487258,256.361476 L173.539676,239.472004 C174.376751,238.643092 175.781582,238.949087 176.203759,240.052556" id="Fill-14" fill="#5140E3"></path>
                    <path d="M197.633705,271.611802 L194.500258,272.91604 C193.761755,273.223852 192.96102,272.645249 193.001472,271.832878 L195.692026,218.358088 C195.713807,217.928631 195.976224,217.551005 196.367257,217.388108 L199.501742,216.083871 C200.239207,215.776058 201.039942,216.355719 200.998453,217.167033 L198.307899,270.641822 C198.287155,271.071279 198.023701,271.449963 197.633705,271.611802" id="Fill-16" fill="#5140E3"></path>
                    <path d="M212.698923,239.001493 L236.589964,239.990776 C237.238872,240.019071 237.809786,240.430923 238.043768,241.041889 L239.890659,245.875121 C240.124641,246.486087 239.975933,247.177746 239.51317,247.636756 L222.460619,264.527918 C221.623486,265.356861 220.217519,265.050854 219.796353,263.948391 L217.993138,259.231483 C217.748757,258.59327 217.921383,257.87122 218.426783,257.415353 L226.875064,249.80186 C227.994015,248.793714 227.279592,246.926233 225.778992,246.934617 L214.444942,247.002735 C213.766917,247.006927 213.157526,246.58774 212.914185,245.950575 L211.11097,241.233667 C210.688764,240.130156 211.525897,238.952239 212.698923,239.001493" id="Fill-18" fill="#5140E3"></path>
                    <path d="M193.982907,67.8903329 L196.990044,98.4839671 C197.070583,99.314994 196.657428,100.11536 195.934669,100.521358 L190.222678,103.735508 C189.500965,104.141506 188.608761,104.075954 187.952943,103.567399 L163.81217,84.8671778 C162.628143,83.9494534 162.76098,82.1055462 164.065293,81.3728468 L169.640263,78.2348213 C170.393355,77.8119068 171.327398,77.9038907 171.986353,78.4653097 L183.003457,87.8645842 C184.461526,89.1079528 186.669549,87.8677561 186.391324,85.9572399 L184.293127,71.540085 C184.167611,70.6783967 184.583904,69.8272813 185.33595,69.4043668 L190.91092,66.2663413 C192.215233,65.5336419 193.835426,66.3900438 193.982907,67.8903329" id="Fill-25" fill="#5140E3"></path>
                    <path d="M96.2316476,137 C93.4116368,131.62236 92,126.120287 92,120.497926 C92,114.876603 93.4116368,109.376603 96.2316476,104 L102,104 C99.1799891,109.376603 97.771615,114.876603 97.771615,120.497926 C97.771615,126.120287 99.1799891,131.62236 102,137 L96.2316476,137 Z" id="Fill-27" fill="#5140E3"></path>
                    <path d="M215.768352,127 C218.588363,132.37764 220,137.879713 220,143.501037 C220,149.123397 218.588363,154.623397 215.768352,160 L210,160 C212.820011,154.623397 214.228385,149.123397 214.228385,143.501037 C214.228385,137.879713 212.820011,132.37764 210,127 L215.768352,127 Z" id="Fill-29" fill="#5140E3"></path>
                    <path d="M143.309304,210 C137.10525,197.941274 134,185.60272 134,172.996868 C134,160.389971 137.10525,148.057681 143.309304,136 L156,136 C149.794872,148.057681 146.696068,160.389971 146.696068,172.996868 C146.696068,185.60272 149.794872,197.941274 156,210 L143.309304,210 Z" id="Fill-31" fill="#5140E3"></path>
                    <path d="M313.80661,190 C318.600038,199.286776 321,208.792718 321,218.503146 C321,228.212525 318.600038,237.712175 313.80661,247 L304,247 C308.793428,237.712175 311.187978,228.212525 311.187978,218.503146 C311.187978,208.792718 308.793428,199.286776 304,190 L313.80661,190 Z" id="Fill-33" fill="#5140E3"></path>
                </g>
            </g>
        </g>
    </g>
</svg>