<?xml version="1.0" encoding="UTF-8"?>
<svg width="1366px" height="300px" viewBox="0 0 1366 300" version="1.1" xmlns="http://www.w3.org/2000/svg" xmlns:xlink="http://www.w3.org/1999/xlink">
    <!-- Generator: Sketch 53.2 (72643) - https://sketchapp.com -->
    <title>khan-banner-06</title>
    <desc>Created with Sketch.</desc>
    <defs>
        <rect id="path-1" x="0" y="0" width="1366" height="300"></rect>
    </defs>
    <g id="Desktop" stroke="none" stroke-width="1" fill="none" fill-rule="evenodd">
        <g id="Khan-Academy" transform="translate(0.000000, -337.000000)">
            <g id="khan-banner-06" transform="translate(0.000000, 337.000000)">
                <mask id="mask-2" fill="white">
                    <use xlink:href="#path-1"></use>
                </mask>
                <use id="Mask" fill="#00EDB4" xlink:href="#path-1"></use>
                <g mask="url(#mask-2)">
                    <g transform="translate(-19.000000, -37.000000)">
                        <path d="M159,167 L149,177" id="Path" stroke="#092A66" stroke-width="5" fill="none" stroke-linecap="round" stroke-linejoin="round"></path>
                        <path d="M179,187 L169,197" id="Path" stroke="#092A66" stroke-width="5" fill="none" stroke-linecap="round" stroke-linejoin="round"></path>
                        <path d="M188,96.1098018 C179.743191,95.3703596 171.591534,98.3931124 165.784671,104.347568 C155.752573,114.445475 158.285042,126 158.285042,126" id="Path" stroke="#092A66" stroke-width="5" fill="none" stroke-linecap="round" stroke-linejoin="round"></path>
                        <path d="M248.887732,157 C249.635719,165.251753 246.618389,173.401955 240.664913,179.210901 C230.561185,189.246359 219,186.715509 219,186.715509" id="Path" stroke="#092A66" stroke-width="5" fill="none" stroke-linecap="round" stroke-linejoin="round"></path>
                        <path d="M145.562425,125.759032 L232.413889,125.719364 L232.389642,178.80682 C232.387181,184.194923 228.017264,188.564839 222.62916,188.5673 L155.289749,188.598056 C149.901645,188.600516 145.535718,184.234591 145.538179,178.846488 L145.562425,125.759032 Z" id="Path" stroke="none" fill="#13BF96" fill-rule="nonzero" transform="translate(188.976033, 157.158710) rotate(44.990000) translate(-188.976033, -157.158710) "></path>
                        <polygon id="Path" stroke="#092A66" stroke-width="2" fill="none" stroke-linecap="round" stroke-linejoin="round" points="184 100.649542 196.836222 81 210.187478 110.553386 242.634595 108.131788 236.800849 137.477608 268 145.414521 245.496993 162"></polygon>
                        <ellipse id="Oval" stroke="none" fill="#FFFFFF" fill-rule="nonzero" transform="translate(192.117460, 153.006968) rotate(-45.010000) translate(-192.117460, -153.006968) " cx="192.11746" cy="153.006968" rx="5.14101781" ry="4.11877081"></ellipse>
                        <circle id="Oval" stroke="none" fill="#092A66" fill-rule="nonzero" cx="184.5" cy="129.5" r="3.5"></circle>
                        <circle id="Oval" stroke="none" fill="#092A66" fill-rule="nonzero" cx="215.5" cy="160.5" r="3.5"></circle>
                        <path d="M99,326 L106,338" id="Path" stroke="#092A66" stroke-width="5" fill="none" stroke-linecap="round" stroke-linejoin="round"></path>
                        <path d="M13.5453132,294 C10.8203417,302.006672 11.730863,310.847097 16.0264675,318.09 C23.2655999,330.58 35,331 35,331" id="Path" stroke="#092A66" stroke-width="5" fill="none" stroke-linecap="round" stroke-linejoin="round"></path>
                        <path d="M87,251 C95.4046615,252.331039 102.769336,257.356295 107.067985,264.693308 C114.533276,277.18369 109.074784,288 109.074784,288" id="Path" stroke="#092A66" stroke-width="5" fill="none" stroke-linecap="round" stroke-linejoin="round"></path>
                        <path d="M29.4837909,277.604121 L116.354047,277.639048 L116.375395,330.715017 C116.377562,336.101954 112.010452,340.467173 106.621181,340.465006 L39.2672004,340.437927 C33.8779298,340.43576 29.5073063,336.067028 29.5051396,330.680091 L29.4837909,277.604121 Z" id="Path" stroke="none" fill="#13BF96" fill-rule="nonzero" transform="translate(72.929593, 309.034564) rotate(-30.850000) translate(-72.929593, -309.034564) "></path>
                        <polygon id="Path" stroke="#092A66" stroke-width="2" fill="none" stroke-linecap="round" stroke-linejoin="round" points="16.02547 301 0 283.606746 32.1205728 277.85889 37.7309794 245.567112 64.9374727 258.509768 80.3362484 230 91 256.074912"></polygon>
                        <ellipse id="Oval" stroke="none" fill="#FFFFFF" fill-rule="nonzero" transform="translate(69.664819, 305.001772) rotate(-30.850000) translate(-69.664819, -305.001772) " cx="69.6648195" cy="305.001772" rx="4.11966184" ry="5.13990536"></ellipse>
                        <circle id="Oval" stroke="none" fill="#092A66" fill-rule="nonzero" cx="45.5" cy="306.5" r="3.5"></circle>
                        <circle id="Oval" stroke="none" fill="#092A66" fill-rule="nonzero" cx="82.5" cy="284.5" r="3.5"></circle>
                        <path d="M385,91 L395,94" id="Path" stroke="#092A66" stroke-width="5" fill="none" stroke-linecap="round" stroke-linejoin="round"></path>
                        <path d="M391,71 L401,74" id="Path" stroke="#092A66" stroke-width="5" fill="none" stroke-linecap="round" stroke-linejoin="round"></path>
                        <path d="M327,97 C329.447914,102.792196 334.421008,107.204484 340.550128,109.022106 C351.022031,112.228647 358,106.522748 358,106.522748" id="Path" stroke="#092A66" stroke-width="5" fill="none" stroke-linecap="round" stroke-linejoin="round"></path>
                        <path d="M346,34.3788188 C351.386815,30.9396581 358.040232,30.0744155 364.136929,32.0202045 C374.60549,35.2731268 377,44 377,44" id="Path" stroke="#092A66" stroke-width="5" fill="none" stroke-linecap="round" stroke-linejoin="round"></path>
                        <path d="M334.742835,50.5060753 L401.015254,50.5233305 L401.025801,91.0612761 C401.026872,95.1792666 397.691954,98.516689 393.577054,98.5156176 L342.196087,98.5022397 C338.081187,98.5011683 334.744532,95.1620088 334.743461,91.0440183 L334.732914,50.5060727 L334.742835,50.5060753 Z" id="Path" stroke="none" fill="#13BF96" fill-rule="nonzero" transform="translate(367.879357, 74.510845) rotate(-72.630000) translate(-367.879357, -74.510845) "></path>
                        <polygon id="Path" stroke="#092A66" stroke-width="2" fill="none" stroke-linecap="round" stroke-linejoin="round" points="331.02103 98 313 96.2789588 328.433754 76.6809757 315.197687 55.5111747 337.344374 49.0149905 331.630389 25 351 34.3811665"></polygon>
                        <ellipse id="Oval" stroke="none" fill="#FFFFFF" fill-rule="nonzero" transform="translate(363.959939, 73.869392) rotate(-72.630000) translate(-363.959939, -73.869392) " cx="363.959939" cy="73.8693922" rx="3.14496376" ry="3.93167446"></ellipse>
                        <circle id="Oval" stroke="none" fill="#092A66" fill-rule="nonzero" cx="350.5" cy="87.5" r="2.5"></circle>
                        <circle id="Oval" stroke="none" fill="#092A66" fill-rule="nonzero" cx="360.5" cy="55.5" r="2.5"></circle>
                        <path d="M823,103 L820,118" id="Path" stroke="#092A66" stroke-width="5" fill="none" stroke-linecap="round" stroke-linejoin="round"></path>
                        <path d="M853,110 L850,125" id="Path" stroke="#092A66" stroke-width="5" fill="none" stroke-linecap="round" stroke-linejoin="round"></path>
                        <path d="M808,21 C800.09568,25.3280559 794.476484,33.1045489 792.687318,42.1914616 C789.481889,57.7218471 798.528536,67 798.528536,67" id="Path" stroke="#092A66" stroke-width="5" fill="none" stroke-linecap="round" stroke-linejoin="round"></path>
                        <path d="M899.580323,41 C905.15563,48.3033797 907.245151,57.7868891 905.273828,66.8405576 C902.041323,82.3709431 890,87 890,87" id="Path" stroke="#092A66" stroke-width="5" fill="none" stroke-linecap="round" stroke-linejoin="round"></path>
                        <path d="M796.969673,42.7740369 L891.840143,42.7563236 L891.829317,100.692681 C891.828217,106.577128 887.053061,111.348307 881.163706,111.349406 L807.620475,111.363138 C801.731121,111.364237 796.957747,106.594842 796.958847,100.710394 L796.969673,42.7740369 Z" id="Path" stroke="none" fill="#13BF96" fill-rule="nonzero" transform="translate(844.399495, 77.059731) rotate(12.070000) translate(-844.399495, -77.059731) "></path>
                        <polygon id="Path" stroke="#092A66" stroke-width="2" fill="none" stroke-linecap="round" stroke-linejoin="round" points="806 28.0555671 806.079541 2.2691271 835.996941 21.5766121 864.413002 0 876.552964 30.5635497 910 19.2875803 899.192352 48"></polygon>
                        <ellipse id="Oval" stroke="none" fill="#FFFFFF" fill-rule="nonzero" transform="translate(844.792077, 71.392981) rotate(-77.930000) translate(-844.792077, -71.392981) " cx="844.792077" cy="71.3929813" rx="5.61506479" ry="4.49778378"></ellipse>
                        <circle id="Oval" stroke="none" fill="#092A66" fill-rule="nonzero" cx="824" cy="55" r="4"></circle>
                        <circle id="Oval" stroke="none" fill="#092A66" fill-rule="nonzero" cx="870" cy="65" r="4"></circle>
                        <path d="M1270,97 L1278,90" id="Path" stroke="#092A66" stroke-width="5" fill="none" stroke-linecap="round" stroke-linejoin="round"></path>
                        <path d="M1256,82 L1264,75" id="Path" stroke="#092A66" stroke-width="5" fill="none" stroke-linecap="round" stroke-linejoin="round"></path>
                        <path d="M1247,147.806394 C1253.05765,148.646271 1259.17283,146.726417 1263.66191,142.575408 C1268.15419,138.707217 1270.48611,132.898814 1269.91502,127" id="Path" stroke="#092A66" stroke-width="5" fill="none" stroke-linecap="round" stroke-linejoin="round"></path>
                        <path d="M1204.01857,101 C1203.75771,94.9479132 1206.25568,89.0989955 1210.82533,85.0622122 C1215.11544,80.9755234 1221.15052,79.2100407 1227,80.3305293" id="Path" stroke="#092A66" stroke-width="5" fill="none" stroke-linecap="round" stroke-linejoin="round"></path>
                        <path d="M1216.52586,80.1149032 L1280.24992,80.0859263 L1280.23221,119.032302 C1280.23041,122.984479 1277.02536,126.189808 1273.07352,126.191605 L1223.67026,126.21407 C1221.77252,126.214933 1219.95285,125.461822 1218.61156,124.120413 C1217.27026,122.779003 1216.51722,120.959177 1216.51808,119.061275 L1216.53579,80.1148987 L1216.52586,80.1149032 Z" id="Path" stroke="none" fill="#13BF96" fill-rule="nonzero" transform="translate(1248.383996, 103.149999) rotate(-132.300000) translate(-1248.383996, -103.149999) "></path>
                        <polygon id="Path" stroke="#092A66" stroke-width="2" fill="none" stroke-linecap="round" stroke-linejoin="round" points="1250 145.063633 1239.89932 159 1231.1454 136.905278 1207.28998 137.54728 1212.58789 116.252591 1190 109.368361 1207.07212 98"></polygon>
                        <ellipse id="Oval" stroke="none" fill="#FFFFFF" fill-rule="nonzero" transform="translate(1245.969229, 105.977456) rotate(-42.300000) translate(-1245.969229, -105.977456) " cx="1245.96923" cy="105.977456" rx="3.77156573" ry="3.01699351"></ellipse>
                        <circle id="Oval" stroke="none" fill="#092A66" fill-rule="nonzero" cx="1250.5" cy="123.5" r="2.5"></circle>
                        <circle id="Oval" stroke="none" fill="#092A66" fill-rule="nonzero" cx="1229.5" cy="99.5" r="2.5"></circle>
                        <path d="M1099.35,287 L1099.65,302" id="Path" stroke="#092A66" stroke-width="5" fill="none" stroke-linecap="round" stroke-linejoin="round"></path>
                        <path d="M1129.355,287 L1129.645,302" id="Path" stroke="#092A66" stroke-width="5" fill="none" stroke-linecap="round" stroke-linejoin="round"></path>
                        <path d="M1065.14226,211 C1058.48352,217.081091 1054.76645,225.975219 1055.01139,235.240946 C1055.2973,251.111206 1066,258 1066,258" id="Path" stroke="#092A66" stroke-width="5" fill="none" stroke-linecap="round" stroke-linejoin="round"></path>
                        <path d="M1160,209 C1166.86968,214.808763 1170.90393,223.549477 1170.99424,232.820409 C1171.27981,248.690669 1160.84718,256 1160.84718,256" id="Path" stroke="#092A66" stroke-width="5" fill="none" stroke-linecap="round" stroke-linejoin="round"></path>
                        <path d="M1066.67089,222.301632 L1161.54512,222.303279 L1161.54612,280.237341 C1161.54623,286.121555 1156.77185,290.89157 1150.88227,290.891468 L1077.33612,290.890191 C1071.44654,290.890088 1066.672,286.119907 1066.6719,280.235693 L1066.67089,222.301632 Z" id="Path" stroke="none" fill="#13BF96" fill-rule="nonzero" transform="translate(1114.108507, 256.596550) rotate(-1.090000) translate(-1114.108507, -256.596550) "></path>
                        <polygon id="Path" stroke="#092A66" stroke-width="2" fill="none" stroke-linecap="round" stroke-linejoin="round" points="1065.77371 218 1060 193.257227 1093.50937 205.055365 1116.24645 178 1135.01846 204.575208 1165 186.260657 1161.01505 216.216561"></polygon>
                        <ellipse id="Oval" stroke="none" fill="#FFFFFF" fill-rule="nonzero" transform="translate(1113.192811, 250.990350) rotate(-1.090000) translate(-1113.192811, -250.990350) " cx="1113.19281" cy="250.99035" rx="4.49796174" ry="5.61484228"></ellipse>
                        <circle id="Oval" stroke="none" fill="#092A66" fill-rule="nonzero" cx="1089" cy="239" r="4"></circle>
                        <circle id="Oval" stroke="none" fill="#092A66" fill-rule="nonzero" cx="1136" cy="239" r="4"></circle>
                        <path d="M526,319 L513,327" id="Path" stroke="#092A66" stroke-width="5" fill="none" stroke-linecap="round" stroke-linejoin="round"></path>
                        <path d="M574,253.580984 C565.471542,250.720269 556.09294,251.777519 548.43824,256.462563 C535.281009,264.384429 535,277 535,277" id="Path" stroke="#092A66" stroke-width="5" fill="none" stroke-linecap="round" stroke-linejoin="round"></path>
                        <path d="M621,331 C619.665273,339.671942 614.406385,347.30592 606.668554,351.804009 C593.501287,359.614055 582,354.127498 582,354.127498" id="Path" stroke="#092A66" stroke-width="5" fill="none" stroke-linecap="round" stroke-linejoin="round"></path>
                        <path d="M512.813582,283.078187 L604.697462,283.040894 L604.674676,339.206876 C604.672362,344.908608 600.050257,349.53265 594.350915,349.534963 L523.106179,349.56388 C517.406836,349.566193 512.788482,344.945901 512.790795,339.244169 L512.813582,283.078187 Z" id="Path" stroke="none" fill="#13BF96" fill-rule="nonzero" transform="translate(558.744128, 316.302387) rotate(58.660000) translate(-558.744128, -316.302387) "></path>
                        <polygon id="Path" stroke="#092A66" stroke-width="2" fill="none" stroke-linecap="round" stroke-linejoin="round" points="567 256.097389 585.094924 239 591.403428 272.916287 625.299275 278.565686 611.970336 307.449233 642 323.492333 614.758734 335"></polygon>
                        <ellipse id="Oval" stroke="none" fill="#FFFFFF" fill-rule="nonzero" transform="translate(562.962150, 312.776174) rotate(-31.340000) translate(-562.962150, -312.776174) " cx="562.96215" cy="312.776174" rx="5.43990102" ry="4.35605062"></ellipse>
                        <ellipse id="Oval" stroke="none" fill="#092A66" fill-rule="nonzero" cx="561" cy="287.5" rx="4" ry="3.5"></ellipse>
                        <ellipse id="Oval" stroke="none" fill="#092A66" fill-rule="nonzero" cx="585" cy="326.5" rx="4" ry="3.5"></ellipse>
                        <path d="M308.828056,247.125832 L344.825803,247.110221 C351.45322,247.108497 356.8272,252.479682 356.828925,259.107099 C356.828925,259.109181 356.828925,259.111263 356.828925,259.113345 L356.807071,295.066071 C356.805346,301.691049 351.435171,307.061223 344.810193,307.062946 L308.812448,307.084805 C302.185031,307.086529 296.81105,301.715344 296.809326,295.087927 C296.809325,295.085845 296.809325,295.083763 296.809326,295.081681 L296.83118,259.128955 C296.832905,252.503977 302.20308,247.133803 308.828057,247.13208 Z" id="Rectangle" stroke="none" fill="#2DFFCC" fill-rule="nonzero" transform="translate(326.819125, 277.097513) rotate(17.370000) translate(-326.819125, -277.097513) "></path>
                        <path d="M856.178844,247.103464 L892.173666,247.122621 C898.79809,247.124736 904.167718,252.494363 904.169835,259.118787 L904.196648,295.074437 C904.198765,301.701854 898.827898,307.076153 892.200482,307.07827 C892.197927,307.078271 892.195372,307.078271 892.192818,307.07827 L856.197999,307.051452 C849.573575,307.049337 844.203946,301.679709 844.20183,295.055285 L844.175017,259.099635 C844.172899,252.472219 849.543766,247.09792 856.171183,247.095803 C856.173737,247.095802 856.176292,247.095802 856.178847,247.095803 Z" id="Rectangle" stroke="none" fill="#2DFFCC" fill-rule="nonzero" transform="translate(874.185832, 277.087036) rotate(-22.180000) translate(-874.185832, -277.087036) "></path>
                        <path d="M1050.07806,36.6530093 L1071.78572,36.6645579 C1075.77693,36.665832 1079.01213,39.9010326 1079.01341,43.892248 L1079.02957,65.5762879 C1079.03084,69.5693065 1075.7949,72.8073216 1071.80188,72.8085971 C1071.80034,72.8085976 1071.7988,72.8085976 1071.79726,72.8085971 L1050.08961,72.7924324 C1046.09839,72.7911583 1042.86319,69.5559577 1042.86192,65.5647423 L1042.84575,43.8807024 C1042.84448,39.8876839 1046.08043,36.6496688 1050.07345,36.6483933 C1050.07498,36.6483928 1050.07652,36.6483928 1050.07806,36.6483933 Z" id="Rectangle" stroke="none" fill="#2DFFCC" fill-rule="nonzero" transform="translate(1060.937662, 54.728495) rotate(-22.180000) translate(-1060.937662, -54.728495) "></path>
                        <path d="M1294.48171,171.516958 L1359.61762,171.468246 C1371.61877,171.462862 1381.35198,181.187348 1381.35737,193.188495 C1381.35737,193.194994 1381.35737,193.201494 1381.35737,193.207994 L1381.28915,258.325347 C1381.28377,270.31888 1371.56243,280.040214 1359.5689,280.045595 L1294.433,280.113815 C1282.43185,280.119199 1272.69863,270.394713 1272.69325,258.393566 C1272.69325,258.387067 1272.69325,258.380567 1272.69325,258.374067 L1272.76147,193.256714 C1272.76685,181.263181 1282.48818,171.541847 1294.48172,171.536466 Z" id="Rectangle" stroke="none" fill="#2DFFCC" fill-rule="nonzero" transform="translate(1327.025308, 225.791031) rotate(39.610000) translate(-1327.025308, -225.791031) "></path>
                        <path d="M520.395435,91.5958516 L579.219081,91.5703422 C590.049385,91.5675245 598.831365,100.344936 598.834183,111.17524 C598.834184,111.178642 598.834184,111.182045 598.834183,111.185447 L598.798471,169.935524 C598.795652,180.761841 590.019891,189.5376 579.193573,189.540417 L520.36993,189.576137 C509.539626,189.578955 500.757646,180.801543 500.754828,169.97124 C500.754827,169.967837 500.754827,169.964434 500.754828,169.961032 L500.790541,111.210956 C500.793359,100.384638 509.56912,91.6088787 520.395438,91.606062 Z" id="Rectangle" stroke="none" fill="#2DFFCC" fill-rule="nonzero" transform="translate(549.794506, 140.573240) rotate(17.370000) translate(-549.794506, -140.573240) "></path>
                        <path d="M32.8879921,69.2130422 L59.0670544,69.2303083 C63.8858031,69.2322148 67.7916943,73.1381067 67.7935998,77.9568554 L67.8177725,104.155851 C67.8196791,108.977296 63.912671,112.887396 59.0912255,112.889302 C59.0889234,112.889303 59.0866214,112.889303 59.0843193,112.889302 L32.9052598,112.865133 C28.0865111,112.863226 24.1806199,108.957335 24.1787143,104.138586 L24.1545416,77.9395904 C24.152635,73.1181449 28.0596432,69.2080454 32.8810887,69.2061388 C32.8833907,69.2061379 32.8856927,69.2061379 32.8879948,69.2061388 Z" id="Rectangle" stroke="none" fill="#2DFFCC" fill-rule="nonzero" transform="translate(45.986157, 91.047721) rotate(-60.000000) translate(-45.986157, -91.047721) "></path>
                    </g>
                </g>
            </g>
        </g>
    </g>
</svg>