<?xml version="1.0" encoding="UTF-8"?>
<svg width="349px" height="193px" viewBox="0 0 349 193" version="1.1" xmlns="http://www.w3.org/2000/svg" xmlns:xlink="http://www.w3.org/1999/xlink">
    <!-- Generator: Sketch 53.2 (72643) - https://sketchapp.com -->
    <title>Group 7</title>
    <desc>Created with Sketch.</desc>
    <g id="Desktop" stroke="none" stroke-width="1" fill="none" fill-rule="evenodd">
        <g id="Khan-Academy" transform="translate(-521.000000, -884.000000)" fill="#FFAB45">
            <g id="Group-7" transform="translate(495.000000, 884.000000)">
                <g transform="translate(8.000000, -16.000000)">
                    <path d="M33.783882,47.3523932 L44.9953626,67.1680332 C46.6271472,70.0521177 45.6119576,73.7129528 42.7278732,75.3447375 C41.8266307,75.854651 40.8087607,76.1226407 39.7732658,76.1226407 L17.3503046,76.1226407 C14.0365961,76.1226407 11.3503046,73.4363492 11.3503046,70.1226407 C11.3503046,69.0871457 11.6182943,68.0692757 12.1282078,67.1680332 L23.3396884,47.3523932 C24.971473,44.4683087 28.6323081,43.4531191 31.5163926,45.0849037 C32.4639426,45.6210176 33.2477681,46.4048431 33.783882,47.3523932 Z" id="Triangle" transform="translate(28.561785, 57.122641) rotate(-36.000000) translate(-28.561785, -57.122641) "></path>
                    <path d="M168.902494,88.2362633 L187.076236,120.120021 C188.717195,122.998896 187.713665,126.662944 184.834791,128.303903 C183.929551,128.81989 182.905542,129.091239 181.863572,129.091239 L145.516089,129.091239 C142.20238,129.091239 139.516089,126.404948 139.516089,123.091239 C139.516089,122.04927 139.787438,121.025261 140.303425,120.120021 L158.477167,88.2362633 C160.118125,85.3573887 163.782174,84.3538594 166.661049,85.9948179 C167.595621,86.527524 168.369788,87.3016912 168.902494,88.2362633 Z" id="Triangle" transform="translate(163.689830, 104.091239) rotate(32.000000) translate(-163.689830, -104.091239) "></path>
                    <rect id="Rectangle" transform="translate(239.386065, 28.500000) rotate(24.000000) translate(-239.386065, -28.500000) " x="217.886065" y="7" width="43" height="43" rx="11"></rect>
                    <rect id="Rectangle" transform="translate(76.268604, 180.382539) rotate(24.000000) translate(-76.268604, -180.382539) " x="45.7686041" y="149.882539" width="61" height="61" rx="11"></rect>
                    <polygon id="Star" transform="translate(299.516010, 177.629944) rotate(-31.000000) translate(-299.516010, -177.629944) " points="299.51601 197.727531 276.592385 209.181607 280.402069 183.84044 262.424806 165.578282 287.702945 161.370655 299.51601 138.629944 311.329075 161.370655 336.607214 165.578282 318.62995 183.84044 322.439634 209.181607"></polygon>
                    <circle id="Oval" cx="359" cy="107.113935" r="26"></circle>
                </g>
            </g>
        </g>
    </g>
</svg>