<?xml version="1.0" encoding="UTF-8"?>
<svg width="375px" height="192px" viewBox="0 0 375 192" version="1.1" xmlns="http://www.w3.org/2000/svg" xmlns:xlink="http://www.w3.org/1999/xlink">
    <!-- Generator: Sketch 53.2 (72643) - https://sketchapp.com -->
    <title>Group 105</title>
    <desc>Created with Sketch.</desc>
    <g id="Desktop" stroke="none" stroke-width="1" fill="none" fill-rule="evenodd">
        <g id="Khan-Academy" transform="translate(-895.000000, -1840.000000)" fill="#FF6064">
            <g id="Group-12-Copy" transform="translate(895.000000, 1840.000000)">
                <g id="Group-105" transform="translate(-25.000000, -70.000000)">
                    <path d="M62.058,156.1441 L114.515,125.8581 L114.515,184.0261 C113.677,184.0181 112.86,184.4391 112.412,185.2151 C111.963,185.9931 112.008,186.9111 112.433,187.6311 L62.058,216.7161 L62.058,156.1441 Z M59.658,93.8431 C60.555,93.8431 61.328,93.3451 61.74,92.6171 L112.115,121.7021 L61.74,150.7851 C61.328,150.0561 60.555,149.5581 59.658,149.5581 C58.76,149.5581 57.988,150.0551 57.576,150.7851 L7.201,121.7021 L57.576,92.6171 C57.988,93.3461 58.76,93.8431 59.658,93.8431 L59.658,93.8431 Z M6.904,185.2151 C6.455,184.4381 5.638,184.0171 4.8,184.0261 L4.8,125.8581 L55.176,154.9421 C54.75,155.6631 54.705,156.5811 55.155,157.3581 C55.599,158.1281 56.406,158.5591 57.235,158.5591 C57.243,158.5591 57.25,158.5561 57.258,158.5561 L57.258,216.7161 L6.882,187.6311 C7.308,186.9111 7.353,185.9931 6.904,185.2151 L6.904,185.2151 Z M119.246,188.3411 C119.278,188.1981 119.297,188.0551 119.303,187.9101 C119.304,187.8781 119.315,187.8481 119.315,187.8161 L119.315,121.7011 C119.315,121.6681 119.304,121.6391 119.303,121.6071 C119.297,121.4621 119.278,121.3191 119.246,121.1751 C119.234,121.1241 119.226,121.0751 119.211,121.0251 C119.16,120.8481 119.092,120.6751 118.996,120.5091 C118.994,120.5031 118.991,120.4981 118.988,120.4941 C118.892,120.3281 118.775,120.1831 118.649,120.0501 C118.614,120.0131 118.575,119.9811 118.537,119.9471 C118.427,119.8451 118.312,119.7561 118.188,119.6781 C118.162,119.6621 118.142,119.6381 118.116,119.6231 L60.858,86.5651 C60.83,86.5481 60.799,86.5431 60.77,86.5291 C60.643,86.4611 60.509,86.4071 60.37,86.3631 C60.32,86.3471 60.271,86.3291 60.219,86.3161 C60.043,86.2741 59.862,86.2461 59.673,86.2451 C59.664,86.2451 59.657,86.2441 59.648,86.2441 C59.456,86.2451 59.273,86.2731 59.094,86.3161 C59.045,86.3291 58.999,86.3461 58.951,86.3611 C58.807,86.4061 58.67,86.4611 58.539,86.5321 C58.513,86.5451 58.484,86.5501 58.458,86.5651 L1.2,119.6231 C1.171,119.6391 1.151,119.6651 1.122,119.6821 C1.002,119.7581 0.889,119.8451 0.783,119.9441 C0.744,119.9801 0.703,120.0131 0.665,120.0511 C0.539,120.1841 0.423,120.3291 0.328,120.4941 C0.325,120.4981 0.322,120.5031 0.319,120.5091 C0.223,120.6751 0.156,120.8491 0.104,121.0251 C0.089,121.0751 0.081,121.1241 0.07,121.1751 C0.037,121.3191 0.018,121.4621 0.012,121.6071 C0.011,121.6391 0,121.6681 0,121.7011 L0,187.8161 C0,187.8481 0.011,187.8781 0.012,187.9101 C0.018,188.0551 0.037,188.1991 0.07,188.3421 C0.081,188.3921 0.089,188.4431 0.104,188.4921 C0.156,188.6681 0.223,188.8411 0.319,189.0081 C0.424,189.1941 0.555,189.3641 0.708,189.5161 C0.813,189.6211 0.934,189.7001 1.054,189.7821 C1.105,189.8171 1.146,189.8631 1.2,189.8941 L1.212,189.9011 C1.216,189.9031 1.219,189.9061 1.223,189.9081 L58.458,222.9521 C58.485,222.9671 58.515,222.9721 58.542,222.9871 C58.672,223.0551 58.808,223.1111 58.951,223.1561 C58.998,223.1701 59.045,223.1881 59.094,223.2001 C59.276,223.2441 59.463,223.2741 59.658,223.2741 C59.853,223.2741 60.04,223.2441 60.222,223.2001 C60.271,223.1881 60.317,223.1701 60.366,223.1561 C60.508,223.1111 60.644,223.0551 60.774,222.9871 C60.801,222.9721 60.831,222.9671 60.858,222.9521 L118.093,189.9071 C118.096,189.9051 118.099,189.9031 118.102,189.9021 L118.116,189.8941 C118.171,189.8621 118.214,189.8141 118.267,189.7781 C118.385,189.6971 118.504,189.6191 118.607,189.5161 C118.76,189.3641 118.891,189.1941 118.996,189.0081 C119.092,188.8411 119.16,188.6681 119.211,188.4931 C119.226,188.4431 119.234,188.3921 119.246,188.3411 L119.246,188.3411 Z" id="Fill-1"></path>
                    <path d="M45.8129,165.1539 C46.2199,165.1539 46.6339,165.0499 47.0109,164.8319 L51.7129,162.1159 C52.8629,161.4529 53.2549,159.9849 52.5919,158.8379 C51.9289,157.6899 50.4609,157.2959 49.3139,157.9599 L44.6109,160.6749 C43.4619,161.3379 43.0699,162.8049 43.7329,163.9539 C44.1769,164.7229 44.9839,165.1539 45.8129,165.1539" id="Fill-5"></path>
                    <path d="M22.9692,178.3433 C23.3752,178.3433 23.7882,178.2393 24.1662,178.0213 L28.8692,175.3053 C30.0182,174.6423 30.4112,173.1743 29.7482,172.0273 C29.0862,170.8783 27.6192,170.4853 26.4702,171.1483 L21.7662,173.8643 C20.6182,174.5273 20.2252,175.9943 20.8882,177.1423 C21.3322,177.9123 22.1392,178.3433 22.9692,178.3433" id="Fill-7"></path>
                    <path d="M34.391,171.7486 C34.798,171.7486 35.211,171.6446 35.589,171.4256 L40.291,168.7106 C41.44,168.0486 41.833,166.5796 41.17,165.4326 C40.507,164.2846 39.041,163.8906 37.892,164.5546 L33.189,167.2696 C32.041,167.9316 31.648,169.3996 32.311,170.5476 C32.755,171.3176 33.562,171.7486 34.391,171.7486" id="Fill-9"></path>
                    <path d="M59.6576,120.2213 C60.9826,120.2213 62.0566,119.1473 62.0566,117.8213 L62.0566,112.3903 C62.0566,111.0643 60.9826,109.9903 59.6576,109.9903 C58.3316,109.9903 57.2576,111.0643 57.2576,112.3903 L57.2576,117.8213 C57.2576,119.1473 58.3316,120.2213 59.6576,120.2213" id="Fill-11"></path>
                    <path d="M59.6576,107.0318 C60.9826,107.0318 62.0566,105.9578 62.0566,104.6328 L62.0566,99.2008 C62.0566,97.8758 60.9826,96.8018 59.6576,96.8018 C58.3316,96.8018 57.2576,97.8758 57.2576,99.2008 L57.2576,104.6328 C57.2576,105.9578 58.3316,107.0318 59.6576,107.0318" id="Fill-13"></path>
                    <path d="M59.6576,133.4107 C60.9826,133.4107 62.0566,132.3367 62.0566,131.0107 L62.0566,125.5797 C62.0566,124.2537 60.9826,123.1797 59.6576,123.1797 C58.3316,123.1797 57.2576,124.2537 57.2576,125.5797 L57.2576,131.0107 C57.2576,132.3367 58.3316,133.4107 59.6576,133.4107" id="Fill-15"></path>
                    <path d="M59.6576,146.6002 C60.9826,146.6002 62.0566,145.5252 62.0566,144.2002 L62.0566,138.7692 C62.0566,137.4432 60.9826,136.3692 59.6576,136.3692 C58.3316,136.3692 57.2576,137.4432 57.2576,138.7692 L57.2576,144.2002 C57.2576,145.5252 58.3316,146.6002 59.6576,146.6002" id="Fill-17"></path>
                    <path d="M96.7192,173.3853 L91.8012,170.5453 C90.6532,169.8813 89.1852,170.2753 88.5232,171.4233 C87.8592,172.5713 88.2532,174.0383 89.4012,174.7013 L94.3192,177.5413 C94.6982,177.7603 95.1102,177.8643 95.5172,177.8643 C96.3462,177.8643 97.1532,177.4343 97.5972,176.6633 C98.2612,175.5163 97.8662,174.0473 96.7192,173.3853" id="Fill-19"></path>
                    <path d="M108.6635,180.2799 L103.7455,177.4409 C102.5975,176.7789 101.1295,177.1739 100.4665,178.3199 C99.8045,179.4679 100.1975,180.9359 101.3455,181.5989 L106.2645,184.4379 C106.6425,184.6559 107.0545,184.7599 107.4615,184.7599 C108.2915,184.7599 109.0985,184.3289 109.5425,183.5589 C110.2055,182.4119 109.8115,180.9439 108.6635,180.2799" id="Fill-21"></path>
                    <path d="M84.7758,166.4879 L79.8568,163.6489 C78.7088,162.9869 77.2418,163.3809 76.5778,164.5279 C75.9158,165.6759 76.3088,167.1429 77.4568,167.8059 L82.3758,170.6459 C82.7538,170.8639 83.1668,170.9669 83.5728,170.9669 C84.4028,170.9669 85.2098,170.5369 85.6548,169.7669 C86.3168,168.6199 85.9228,167.1509 84.7758,166.4879" id="Fill-23"></path>
                    <path d="M72.8305,159.5924 L70.4055,158.1934 C69.2585,157.5294 67.7895,157.9244 67.1275,159.0714 C66.4645,160.2184 66.8575,161.6874 68.0055,162.3494 L70.4315,163.7494 C70.8095,163.9684 71.2215,164.0714 71.6285,164.0714 C72.4585,164.0714 73.2655,163.6414 73.7095,162.8704 C74.3725,161.7234 73.9785,160.2554 72.8305,159.5924" id="Fill-25"></path>
                    <path d="M220.2836,259.5758 L261.6916,235.6688 L261.6916,281.5848 C261.0306,281.5788 260.3846,281.9108 260.0306,282.5238 C259.6776,283.1378 259.7126,283.8618 260.0486,284.4308 L220.2836,307.3898 L220.2836,259.5758 Z M218.3876,210.3968 C219.0966,210.3968 219.7066,210.0038 220.0316,209.4288 L259.7966,232.3878 L220.0316,255.3458 C219.7066,254.7688 219.0966,254.3768 218.3876,254.3768 C217.6796,254.3768 217.0696,254.7688 216.7446,255.3448 L176.9796,232.3878 L216.7446,209.4288 C217.0696,210.0048 217.6796,210.3968 218.3876,210.3968 L218.3876,210.3968 Z M176.7456,282.5238 C176.3906,281.9098 175.7466,281.5778 175.0856,281.5848 L175.0856,235.6688 L214.8496,258.6268 C214.5136,259.1958 214.4786,259.9208 214.8336,260.5338 C215.1846,261.1418 215.8206,261.4818 216.4756,261.4818 C216.4816,261.4818 216.4876,261.4788 216.4936,261.4788 L216.4936,307.3898 L176.7286,284.4308 C177.0636,283.8618 177.0996,283.1378 176.7456,282.5238 L176.7456,282.5238 Z M265.4256,284.9918 C265.4506,284.8788 265.4666,284.7648 265.4706,284.6508 C265.4716,284.6258 265.4806,284.6018 265.4806,284.5768 L265.4806,232.3878 C265.4806,232.3608 265.4716,232.3378 265.4706,232.3118 C265.4666,232.1978 265.4506,232.0858 265.4256,231.9718 C265.4166,231.9318 265.4106,231.8918 265.3986,231.8528 C265.3576,231.7138 265.3036,231.5768 265.2286,231.4458 C265.2266,231.4418 265.2246,231.4378 265.2216,231.4328 C265.1456,231.3038 265.0536,231.1888 264.9546,231.0838 C264.9266,231.0548 264.8956,231.0298 264.8656,231.0018 C264.7796,230.9228 264.6886,230.8518 264.5906,230.7908 C264.5696,230.7768 264.5536,230.7588 264.5336,230.7468 L219.3366,204.6508 C219.3136,204.6378 219.2896,204.6348 219.2656,204.6228 C219.1666,204.5698 219.0606,204.5258 218.9506,204.4918 C218.9106,204.4788 218.8726,204.4648 218.8316,204.4548 C218.6926,204.4218 218.5496,204.3988 218.4006,204.3978 L218.3806,204.3978 C218.2286,204.3988 218.0846,204.4218 217.9436,204.4548 C217.9046,204.4648 217.8686,204.4778 217.8306,204.4898 C217.7176,204.5248 217.6086,204.5698 217.5056,204.6248 C217.4846,204.6358 217.4616,204.6388 217.4406,204.6508 L172.2436,230.7468 C172.2206,230.7598 172.2046,230.7788 172.1816,230.7938 C172.0876,230.8528 171.9976,230.9228 171.9136,230.9998 C171.8826,231.0278 171.8496,231.0548 171.8216,231.0848 C171.7216,231.1888 171.6306,231.3038 171.5546,231.4328 C171.5526,231.4378 171.5496,231.4418 171.5476,231.4458 C171.4716,231.5768 171.4196,231.7148 171.3786,231.8528 C171.3666,231.8918 171.3596,231.9308 171.3506,231.9718 C171.3256,232.0848 171.3096,232.1978 171.3056,232.3118 C171.3046,232.3378 171.2966,232.3618 171.2966,232.3878 L171.2966,284.5768 C171.2966,284.6018 171.3046,284.6258 171.3056,284.6508 C171.3096,284.7648 171.3256,284.8788 171.3506,284.9918 C171.3596,285.0318 171.3666,285.0708 171.3786,285.1098 C171.4196,285.2498 171.4716,285.3868 171.5476,285.5168 C171.6316,285.6638 171.7346,285.7988 171.8546,285.9188 C171.9376,286.0008 172.0336,286.0638 172.1286,286.1288 C172.1686,286.1558 172.2006,286.1918 172.2436,286.2168 L172.2536,286.2218 C172.2566,286.2238 172.2586,286.2258 172.2616,286.2268 L217.4406,312.3118 C217.4626,312.3238 217.4866,312.3278 217.5086,312.3398 C217.6096,312.3938 217.7176,312.4378 217.8306,312.4718 C217.8686,312.4848 217.9046,312.4988 217.9436,312.5088 C218.0876,312.5428 218.2346,312.5658 218.3876,312.5658 C218.5426,312.5658 218.6896,312.5428 218.8336,312.5088 C218.8726,312.4988 218.9086,312.4848 218.9466,312.4718 C219.0596,312.4378 219.1666,312.3938 219.2686,312.3398 C219.2906,312.3278 219.3146,312.3238 219.3366,312.3118 L264.5156,286.2268 C264.5176,286.2248 264.5206,286.2238 264.5226,286.2218 L264.5336,286.2168 C264.5776,286.1908 264.6116,286.1538 264.6526,286.1248 C264.7466,286.0608 264.8406,285.9998 264.9216,285.9188 C265.0426,285.7988 265.1456,285.6638 265.2286,285.5168 C265.3036,285.3868 265.3576,285.2498 265.3986,285.1098 C265.4106,285.0708 265.4166,285.0308 265.4256,284.9918 L265.4256,284.9918 Z" id="Fill-27"></path>
                    <path d="M207.4594,266.6881 C207.7814,266.6881 208.1074,266.6061 208.4054,266.4331 L212.1174,264.2901 C213.0234,263.7661 213.3344,262.6071 212.8114,261.7021 C212.2874,260.7951 211.1294,260.4851 210.2234,261.0081 L206.5114,263.1521 C205.6044,263.6741 205.2934,264.8341 205.8174,265.7401 C206.1684,266.3481 206.8054,266.6881 207.4594,266.6881" id="Fill-31"></path>
                    <path d="M218.3881,231.2183 C219.4351,231.2183 220.2831,230.3703 220.2831,229.3233 L220.2831,225.0363 C220.2831,223.9903 219.4351,223.1423 218.3881,223.1423 C217.3411,223.1423 216.4931,223.9903 216.4931,225.0363 L216.4931,229.3233 C216.4931,230.3703 217.3411,231.2183 218.3881,231.2183" id="Fill-37"></path>
                    <path d="M218.3881,220.8072 C219.4351,220.8072 220.2831,219.9592 220.2831,218.9122 L220.2831,214.6252 C220.2831,213.5792 219.4351,212.7312 218.3881,212.7312 C217.3411,212.7312 216.4931,213.5792 216.4931,214.6252 L216.4931,218.9122 C216.4931,219.9592 217.3411,220.8072 218.3881,220.8072" id="Fill-39"></path>
                    <path d="M218.3881,241.6304 C219.4351,241.6304 220.2831,240.7814 220.2831,239.7344 L220.2831,235.4484 C220.2831,234.4014 219.4351,233.5534 218.3881,233.5534 C217.3411,233.5534 216.4931,234.4014 216.4931,235.4484 L216.4931,239.7344 C216.4931,240.7814 217.3411,241.6304 218.3881,241.6304" id="Fill-41"></path>
                    <path d="M218.3881,252.0416 C219.4351,252.0416 220.2831,251.1926 220.2831,250.1466 L220.2831,245.8596 C220.2831,244.8126 219.4351,243.9656 218.3881,243.9656 C217.3411,243.9656 216.4931,244.8126 216.4931,245.8596 L216.4931,250.1466 C216.4931,251.1926 217.3411,252.0416 218.3881,252.0416" id="Fill-43"></path>
                    <path d="M228.7865,262.2974 L226.8725,261.1934 C225.9665,260.6684 224.8075,260.9804 224.2845,261.8854 C223.7615,262.7914 224.0715,263.9504 224.9775,264.4734 L226.8915,265.5784 C227.1905,265.7514 227.5155,265.8334 227.8375,265.8334 C228.4925,265.8334 229.1295,265.4924 229.4795,264.8854 C230.0035,263.9794 229.6925,262.8204 228.7865,262.2974" id="Fill-51"></path>
                    <path d="M232.7065,55.2242 L259.6575,6.6072 L287.1495,52.3662 C286.4865,52.7552 286.0425,53.4732 286.0575,54.2952 C286.0705,55.1192 286.5405,55.8202 287.2165,56.1862 L261.3345,102.8732 L232.7065,55.2242 Z M201.3725,7.3492 C202.0785,6.9252 202.4515,6.1682 202.4315,5.4002 L255.8055,4.4712 L229.9225,51.1592 C229.2545,50.7802 228.4105,50.7532 227.7045,51.1772 C226.9985,51.6022 226.6265,52.3592 226.6465,53.1262 L173.2725,54.0562 L199.1555,7.3692 C199.8235,7.7472 200.6675,7.7742 201.3725,7.3492 L201.3725,7.3492 Z M203.0585,104.1612 C202.3375,103.7612 201.4965,103.8172 200.8415,104.2192 L173.3505,58.4602 L226.7245,57.5312 C226.7295,58.2992 227.1285,59.0432 227.8495,59.4422 C228.5625,59.8382 229.4005,59.7952 230.0535,59.4042 C230.0605,59.4002 230.0635,59.3942 230.0695,59.3902 L257.5585,105.1432 L204.1835,106.0722 C204.1775,105.3032 203.7785,104.5602 203.0585,104.1612 L203.0585,104.1612 Z M292.9105,53.5252 C292.8685,53.3962 292.8155,53.2752 292.7515,53.1582 C292.7375,53.1322 292.7315,53.1032 292.7175,53.0782 L261.4695,1.0682 C261.4545,1.0422 261.4315,1.0242 261.4155,0.9992 C261.3425,0.8882 261.2595,0.7852 261.1665,0.6872 C261.1335,0.6532 261.1025,0.6172 261.0675,0.5852 C260.9435,0.4712 260.8095,0.3672 260.6555,0.2812 C260.6505,0.2782 260.6455,0.2752 260.6415,0.2732 C260.4875,0.1882 260.3265,0.1292 260.1645,0.0842 C260.1195,0.0722 260.0735,0.0662 260.0275,0.0562 C259.8935,0.0282 259.7615,0.0122 259.6265,0.0102 C259.5985,0.0092 259.5715,-0.0008 259.5435,0.0002 L198.8775,1.0562 C198.8485,1.0562 198.8205,1.0672 198.7915,1.0692 C198.6585,1.0772 198.5285,1.0962 198.3975,1.1272 C198.3515,1.1392 198.3035,1.1482 198.2575,1.1622 C198.0995,1.2122 197.9425,1.2762 197.7945,1.3642 L197.7735,1.3752 C197.6235,1.4672 197.4925,1.5762 197.3725,1.6942 C197.3395,1.7272 197.3105,1.7622 197.2805,1.7972 C197.1885,1.9002 197.1075,2.0092 197.0375,2.1252 C197.0225,2.1492 197.0025,2.1662 196.9895,2.1912 L167.5705,55.2572 C167.5565,55.2842 167.5515,55.3132 167.5375,55.3402 C167.4785,55.4572 167.4315,55.5792 167.3935,55.7062 C167.3805,55.7542 167.3635,55.7992 167.3525,55.8472 C167.3165,56.0112 167.2935,56.1792 167.2955,56.3552 C167.2955,56.3602 167.2955,56.3662 167.2965,56.3702 C167.2995,56.5472 167.3285,56.7152 167.3705,56.8782 C167.3835,56.9242 167.3995,56.9672 167.4155,57.0122 C167.4575,57.1402 167.5105,57.2632 167.5735,57.3792 C167.5885,57.4052 167.5935,57.4342 167.6085,57.4592 L198.8555,109.4692 C198.8715,109.4942 198.8945,109.5132 198.9105,109.5372 C198.9835,109.6492 199.0665,109.7522 199.1595,109.8502 C199.1925,109.8842 199.2235,109.9202 199.2575,109.9522 C199.3815,110.0662 199.5175,110.1702 199.6705,110.2562 C199.8415,110.3522 200.0245,110.4242 200.2175,110.4722 C200.3495,110.5042 200.4815,110.5102 200.6145,110.5182 C200.6715,110.5212 200.7255,110.5372 200.7825,110.5362 L200.7955,110.5362 L200.8075,110.5362 L261.4485,109.4812 C261.4765,109.4802 261.5035,109.4702 261.5315,109.4682 C261.6665,109.4612 261.7995,109.4412 261.9335,109.4082 C261.9775,109.3972 262.0225,109.3892 262.0665,109.3752 C262.2305,109.3242 262.3925,109.2592 262.5455,109.1662 C262.6985,109.0752 262.8315,108.9622 262.9535,108.8422 C262.9865,108.8102 263.0155,108.7742 263.0465,108.7402 C263.1375,108.6372 263.2175,108.5292 263.2875,108.4132 C263.3025,108.3892 263.3235,108.3712 263.3375,108.3462 L292.7435,55.3002 C292.7455,55.2972 292.7465,55.2942 292.7485,55.2912 L292.7555,55.2802 C292.7835,55.2282 292.7955,55.1702 292.8195,55.1172 C292.8735,54.9972 292.9315,54.8792 292.9635,54.7502 C293.0125,54.5582 293.0335,54.3632 293.0295,54.1662 C293.0255,53.9912 292.9975,53.8222 292.9545,53.6592 C292.9425,53.6132 292.9255,53.5702 292.9105,53.5252 L292.9105,53.5252 Z" id="Fill-53"></path>
                    <path d="M206.5795,101.7476 C206.8995,101.5556 207.1755,101.2786 207.3695,100.9286 L209.7865,96.5696 C210.3755,95.5056 209.9915,94.1646 208.9285,93.5746 C207.8645,92.9846 206.5235,93.3686 205.9335,94.4336 L203.5165,98.7916 C202.9275,99.8556 203.3095,101.1956 204.3745,101.7866 C205.0885,102.1826 205.9265,102.1406 206.5795,101.7476" id="Fill-55"></path>
                    <path d="M224.185,69.9898 C224.505,69.7978 224.782,69.5198 224.975,69.1698 L227.391,64.8108 C227.981,63.7468 227.596,62.4058 226.533,61.8168 C225.468,61.2268 224.127,61.6108 223.539,62.6758 L221.122,67.0348 C220.532,68.0978 220.916,69.4388 221.981,70.0278 C222.695,70.4248 223.533,70.3818 224.185,69.9898" id="Fill-57"></path>
                    <path d="M212.4477,91.1617 C212.7677,90.9697 213.0437,90.6927 213.2377,90.3427 L215.6537,85.9827 C216.2437,84.9197 215.8597,83.5777 214.7957,82.9887 C213.7327,82.3987 212.3927,82.7817 211.8017,83.8477 L209.3847,88.2067 C208.7957,89.2697 209.1787,90.6107 210.2437,91.2007 C210.9577,91.5967 211.7957,91.5547 212.4477,91.1617" id="Fill-59"></path>
                    <path d="M218.3168,80.5758 C218.6368,80.3838 218.9128,80.1058 219.1068,79.7558 L221.5228,75.3968 C222.1128,74.3338 221.7278,72.9928 220.6648,72.4028 C219.5998,71.8128 218.2608,72.1958 217.6708,73.2618 L215.2538,77.6198 C214.6648,78.6828 215.0478,80.0248 216.1128,80.6138 C216.8268,81.0108 217.6648,80.9678 218.3168,80.5758" id="Fill-61"></path>
                    <path d="M375.2953,206.1197 L420.6473,187.6737 L414.2123,234.2467 C413.5423,234.1477 412.8413,234.3947 412.3973,234.9667 C411.9513,235.5387 411.8863,236.2787 412.1473,236.9037 L368.5953,254.6187 L375.2953,206.1197 Z M380.2653,155.9717 C380.9833,156.0707 381.6573,155.7577 382.0673,155.2197 L419.1853,184.0797 L375.6333,201.7937 C375.3843,201.1637 374.8203,200.6807 374.1023,200.5807 C373.3833,200.4807 372.7093,200.7947 372.2993,201.3327 L335.1823,172.4737 L378.7333,154.7597 C378.9833,155.3887 379.5463,155.8727 380.2653,155.9717 L380.2653,155.9717 Z M327.9183,223.2957 C327.6453,222.6237 327.0373,222.1957 326.3653,222.1097 L332.8003,175.5367 L369.9183,204.3947 C369.4973,204.9267 369.3593,205.6567 369.6333,206.3287 C369.9043,206.9937 370.5023,207.4287 371.1663,207.5197 C371.1733,207.5207 371.1793,207.5187 371.1853,207.5197 L364.7513,254.0877 L327.6343,225.2277 C328.0543,224.6977 328.1913,223.9677 327.9183,223.2957 L327.9183,223.2957 Z M417.5233,238.2257 C417.5643,238.1147 417.5963,238.0017 417.6163,237.8867 C417.6203,237.8607 417.6333,237.8387 417.6373,237.8117 L424.9503,184.8757 C424.9533,184.8497 424.9473,184.8247 424.9503,184.7987 C424.9623,184.6827 424.9623,184.5647 424.9523,184.4467 C424.9483,184.4047 424.9473,184.3637 424.9413,184.3227 C424.9193,184.1757 424.8853,184.0297 424.8273,183.8867 C424.8253,183.8817 424.8233,183.8767 424.8213,183.8727 C424.7633,183.7287 424.6863,183.5997 424.5993,183.4797 C424.5743,183.4467 424.5473,183.4167 424.5213,183.3847 C424.4443,183.2917 424.3613,183.2077 424.2713,183.1317 C424.2523,183.1157 424.2383,183.0947 424.2193,183.0787 L382.0313,150.2757 C382.0113,150.2607 381.9863,150.2527 381.9653,150.2377 C381.8703,150.1697 381.7703,150.1107 381.6623,150.0597 C381.6243,150.0427 381.5873,150.0217 381.5473,150.0067 C381.4113,149.9527 381.2693,149.9107 381.1183,149.8897 C381.1113,149.8887 381.1053,149.8867 381.0983,149.8857 C380.9443,149.8647 380.7943,149.8677 380.6473,149.8827 C380.6063,149.8867 380.5663,149.8947 380.5263,149.9017 C380.4063,149.9217 380.2903,149.9517 380.1783,149.9927 C380.1553,150.0017 380.1323,150.0017 380.1093,150.0117 L330.6073,170.1457 C330.5823,170.1557 330.5633,170.1737 330.5393,170.1847 C330.4343,170.2317 330.3343,170.2897 330.2373,170.3557 C330.2023,170.3817 330.1653,170.4027 330.1323,170.4307 C330.0173,170.5217 329.9073,170.6257 329.8133,170.7467 C329.8103,170.7507 329.8063,170.7537 329.8033,170.7577 C329.7083,170.8807 329.6363,171.0127 329.5743,171.1467 C329.5583,171.1847 329.5453,171.2237 329.5303,171.2637 C329.4883,171.3747 329.4573,171.4877 329.4373,171.6027 C329.4333,171.6287 329.4203,171.6507 329.4163,171.6777 L322.1033,224.6137 C322.1003,224.6397 322.1063,224.6647 322.1033,224.6907 C322.0913,224.8067 322.0913,224.9247 322.1013,225.0427 C322.1053,225.0847 322.1053,225.1257 322.1113,225.1667 C322.1343,225.3137 322.1683,225.4597 322.2263,225.6037 C322.2903,225.7647 322.3763,225.9147 322.4823,226.0537 C322.5543,226.1487 322.6433,226.2257 322.7303,226.3047 C322.7673,226.3387 322.7943,226.3797 322.8343,226.4107 L322.8433,226.4177 C322.8463,226.4197 322.8493,226.4217 322.8513,226.4237 L365.0233,259.2137 C365.0423,259.2277 365.0663,259.2357 365.0863,259.2507 C365.1833,259.3197 365.2853,259.3797 365.3953,259.4317 C365.4313,259.4477 365.4673,259.4677 365.5043,259.4817 C365.6453,259.5377 365.7913,259.5817 365.9473,259.6037 C366.1043,259.6257 366.2573,259.6217 366.4073,259.6067 C366.4473,259.6027 366.4863,259.5947 366.5273,259.5877 C366.6473,259.5677 366.7613,259.5377 366.8733,259.4977 C366.8973,259.4887 366.9213,259.4877 366.9443,259.4787 L416.4273,239.3507 C416.4293,239.3497 416.4323,239.3487 416.4353,239.3487 L416.4453,239.3437 C416.4943,239.3237 416.5333,239.2907 416.5803,239.2667 C416.6843,239.2157 416.7873,239.1667 416.8813,239.0957 C417.0213,238.9907 417.1443,238.8687 417.2493,238.7317 C417.3443,238.6087 417.4173,238.4777 417.4793,238.3427 C417.4953,238.3047 417.5083,238.2657 417.5233,238.2257 L417.5233,238.2257 Z" id="Fill-79"></path>
                    <path d="M331.6674,223.5865 C331.9924,223.6315 332.3344,223.5945 332.6614,223.4615 L336.7284,221.8085 C337.7204,221.4035 338.1974,220.2725 337.7944,219.2795 C337.3914,218.2865 336.2594,217.8105 335.2664,218.2125 L331.1994,219.8665 C330.2074,220.2715 329.7304,221.4015 330.1334,222.3955 C330.4034,223.0615 331.0024,223.4945 331.6674,223.5865" id="Fill-81"></path>
                    <path d="M361.2914,211.5367 C361.6174,211.5817 361.9604,211.5447 362.2864,211.4107 L366.3524,209.7567 C367.3454,209.3527 367.8224,208.2217 367.4184,207.2287 C367.0154,206.2367 365.8834,205.7597 364.8904,206.1627 L360.8244,207.8167 C359.8314,208.2217 359.3544,209.3527 359.7594,210.3457 C360.0294,211.0117 360.6274,211.4447 361.2914,211.5367" id="Fill-83"></path>
                    <path d="M341.5414,219.5699 C341.8674,219.6149 342.2094,219.5779 342.5364,219.4439 L346.6034,217.7899 C347.5954,217.3859 348.0724,216.2549 347.6684,215.2619 C347.2664,214.2699 346.1354,213.7929 345.1414,214.1969 L341.0744,215.8509 C340.0824,216.2549 339.6044,217.3859 340.0084,218.3789 C340.2794,219.0449 340.8774,219.4779 341.5414,219.5699" id="Fill-85"></path>
                    <path d="M351.4174,215.5533 C351.7434,215.5983 352.0854,215.5613 352.4114,215.4273 L356.4784,213.7743 C357.4704,213.3693 357.9474,212.2383 357.5434,211.2453 C357.1404,210.2533 356.0104,209.7763 355.0164,210.1803 L350.9494,211.8333 C349.9574,212.2373 349.4804,213.3693 349.8844,214.3623 C350.1544,215.0283 350.7524,215.4613 351.4174,215.5533" id="Fill-87"></path>
                    <path d="M377.3471,177.0914 C378.4091,177.2374 379.3871,176.4964 379.5351,175.4354 L380.1351,171.0864 C380.2821,170.0254 379.5401,169.0464 378.4791,168.9004 C377.4171,168.7524 376.4381,169.4934 376.2911,170.5564 L375.6911,174.9034 C375.5441,175.9654 376.2851,176.9454 377.3471,177.0914" id="Fill-89"></path>
                    <path d="M378.8061,166.5308 C379.8681,166.6768 380.8461,165.9358 380.9941,164.8748 L381.5941,160.5268 C381.7411,159.4648 380.9991,158.4858 379.9381,158.3398 C378.8761,158.1928 377.8971,158.9338 377.7501,159.9958 L377.1501,164.3438 C377.0031,165.4058 377.7441,166.3848 378.8061,166.5308" id="Fill-91"></path>
                    <path d="M375.8881,187.6519 C376.9501,187.7979 377.9281,187.0569 378.0761,185.9959 L378.6761,181.6469 C378.8231,180.5859 378.0811,179.6069 377.0201,179.4599 C375.9581,179.3129 374.9791,180.0539 374.8321,181.1159 L374.2321,185.4639 C374.0851,186.5259 374.8261,187.5059 375.8881,187.6519" id="Fill-93"></path>
                    <path d="M374.4291,198.2125 C375.4911,198.3585 376.4691,197.6175 376.6171,196.5565 L377.2171,192.2075 C377.3641,191.1465 376.6221,190.1665 375.5611,190.0205 C374.4991,189.8735 373.5201,190.6145 373.3731,191.6765 L372.7731,196.0245 C372.6261,197.0865 373.3671,198.0655 374.4291,198.2125" id="Fill-95"></path>
                    <path d="M401.141,223.7584 L397.517,220.9404 C396.67,220.2814 395.453,220.4344 394.795,221.2804 C394.137,222.1264 394.289,223.3454 395.135,224.0034 L398.759,226.8214 C399.037,227.0374 399.357,227.1664 399.682,227.2114 C400.347,227.3034 401.04,227.0484 401.481,226.4804 C402.139,225.6354 401.987,224.4154 401.141,223.7584" id="Fill-97"></path>
                    <path d="M392.3402,216.9146 L388.7162,214.0976 C387.8702,213.4396 386.6522,213.5936 385.9932,214.4376 C385.3362,215.2836 385.4892,216.5036 386.3352,217.1606 L389.9582,219.9776 C390.2372,220.1946 390.5562,220.3236 390.8822,220.3686 C391.5462,220.4606 392.2402,220.2046 392.6822,219.6376 C393.3392,218.7916 393.1862,217.5726 392.3402,216.9146" id="Fill-101"></path>
                    <path d="M383.5395,210.0728 L381.7525,208.6828 C380.9065,208.0248 379.6865,208.1778 379.0305,209.0238 C378.3725,209.8698 378.5255,211.0888 379.3715,211.7458 L381.1575,213.1358 C381.4365,213.3518 381.7555,213.4808 382.0815,213.5258 C382.7455,213.6178 383.4395,213.3618 383.8805,212.7948 C384.5385,211.9488 384.3855,210.7298 383.5395,210.0728" id="Fill-103"></path>
                </g>
            </g>
        </g>
    </g>
</svg>