<?xml version="1.0" encoding="UTF-8"?>
<svg width="373px" height="193px" viewBox="0 0 373 193" version="1.1" xmlns="http://www.w3.org/2000/svg" xmlns:xlink="http://www.w3.org/1999/xlink">
    <!-- Generator: Sketch 53.2 (72643) - https://sketchapp.com -->
    <title>Group 29</title>
    <desc>Created with Sketch.</desc>
    <defs>
        <polygon id="path-1" points="0.50028 0.76048 32.4908571 0.76048 32.4908571 27.77488 0.50028 27.77488"></polygon>
        <polygon id="path-3" points="0.638513645 0.752079928 104.150886 0.752079928 104.150886 72 0.638513645 72"></polygon>
    </defs>
    <g id="Desktop" stroke="none" stroke-width="1" fill="none" fill-rule="evenodd">
        <g id="Khan-Academy" transform="translate(-497.000000, -1840.000000)">
            <g id="Group-7-Copy" transform="translate(495.000000, 1840.000000)">
                <g id="Group-29" transform="translate(-25.000000, -14.000000)">
                    <path d="M143.15962,80.3242356 C143.670423,80.8676441 144.317999,81.1393484 145.102347,81.1393484 C145.886695,81.1393484 146.542644,80.8592982 147.071126,80.299198 C147.598677,79.7381704 147.863848,79.084411 147.863848,78.3360652 C147.863848,77.5209524 147.607981,76.8505013 147.096247,76.3237845 C146.585444,75.7970677 145.921121,75.5337093 145.102347,75.5337093 C144.317999,75.5337093 143.670423,75.8054135 143.15962,76.3488221 C142.647886,76.8931579 142.392019,77.5552632 142.392019,78.3360652 C142.392019,79.1177945 142.647886,79.7808271 143.15962,80.3242356 L143.15962,80.3242356 Z M151.469244,84.4776942 C149.781454,86.1598496 147.675902,87 145.15352,87 C142.630208,87 140.517213,86.1598496 138.812674,84.4776942 C137.107206,82.7955388 136.255867,80.7489474 136.255867,78.3360652 C136.255867,75.9241103 137.107206,73.8765915 138.812674,72.1944361 C140.517213,70.513208 142.630208,69.6721303 145.15352,69.6721303 C147.675902,69.6721303 149.781454,70.513208 151.469244,72.1944361 C153.156105,73.8765915 154,75.9241103 154,78.3360652 C154,80.7489474 153.156105,82.7955388 151.469244,84.4776942 L151.469244,84.4776942 Z M124.903753,60.6511779 C125.415486,61.1955138 126.062132,61.4662907 126.84648,61.4662907 C127.630828,61.4662907 128.286778,61.1862406 128.815259,60.6261404 C129.34281,60.0651128 129.608911,59.4113534 129.608911,58.6639348 C129.608911,57.8488221 129.352114,57.1774436 128.84038,56.6507268 C128.330508,56.12401 127.665254,55.8606516 126.84648,55.8606516 C126.062132,55.8606516 125.415486,56.1323559 124.903753,56.6757644 C124.392019,57.2201003 124.137083,57.8822055 124.137083,58.6639348 C124.137083,59.4456642 124.392019,60.1077694 124.903753,60.6511779 L124.903753,60.6511779 Z M122.244598,80.7823308 L145.358214,55.3005514 L148.732865,57.236792 L125.619249,82.7705013 L122.244598,80.7823308 Z M133.213377,64.8055639 C131.525587,66.486792 129.420035,67.3278697 126.897653,67.3278697 C124.375271,67.3278697 122.261346,66.486792 120.556808,64.8055639 C118.852269,63.1234085 118,61.076817 118,58.6639348 C118,56.2510526 118.852269,54.2044612 120.556808,52.5223058 C122.261346,50.8401504 124.375271,50 126.897653,50 C129.420035,50 131.525587,50.824386 133.213377,52.4713033 C134.900238,54.1191479 135.744133,56.1842857 135.744133,58.6639348 C135.744133,61.076817 134.900238,63.1234085 133.213377,64.8055639 L133.213377,64.8055639 Z" id="Fill-1" fill="#FFAB45"></path>
                    <path d="M338.141443,196.474634 C338.987861,196.91866 339.88212,196.971719 340.82422,196.634744 C341.7654,196.297768 342.435175,195.674084 342.831703,194.76183 C343.227312,193.851437 343.265953,192.939183 342.947626,192.026929 C342.599858,191.031827 342.006446,190.324364 341.167388,189.900818 C340.32925,189.479133 339.41751,189.441898 338.433089,189.793768 C337.490989,190.131674 336.829495,190.742326 336.446767,191.624792 C336.064038,192.508189 336.039198,193.42696 336.371325,194.379242 C336.705292,195.333385 337.295945,196.031539 338.141443,196.474634 L338.141443,196.474634 Z M349.897455,197.968683 C348.587347,200.747335 346.4161,202.678894 343.383715,203.763359 C340.35225,204.847825 337.454188,204.729604 334.688609,203.409628 C331.92303,202.091514 330.026869,199.960748 328.998287,197.017332 C327.969705,194.073916 328.120588,191.211485 329.452777,188.425386 C330.783125,185.641149 332.964492,183.705867 335.996877,182.621401 C339.028342,181.536936 341.917204,181.657949 344.661622,182.984441 C347.406961,184.311864 349.293922,186.446353 350.321584,189.388838 C351.350166,192.333186 351.209403,195.191893 349.897455,197.968683 L349.897455,197.968683 Z M313.203389,206.026308 L330.115191,165 L334.996816,165.912254 L318.106174,207 L313.203389,206.026308 Z M307.815754,180.321217 C308.662172,180.767105 309.555511,180.818303 310.498531,180.481327 C311.440631,180.144352 312.109486,179.519737 312.506014,178.609344 C312.900703,177.698021 312.940263,176.787628 312.621937,175.874443 C312.274169,174.880272 311.680756,174.171879 310.841698,173.748332 C310.00264,173.325716 309.091821,173.291274 308.10832,173.642213 C307.1653,173.980119 306.503806,174.590771 306.121077,175.472307 C305.738349,176.355704 305.713509,177.273543 306.045636,178.226756 C306.380523,179.180899 306.969336,179.879053 307.815754,180.321217 L307.815754,180.321217 Z M319.572685,181.818059 C318.262577,184.593918 316.089491,186.525477 313.058026,187.609943 C310.025641,188.694408 307.127579,188.578049 304.36292,187.259004 C301.597341,185.939959 299.70118,183.809193 298.672598,180.864846 C297.644016,177.922361 297.794899,175.058069 299.127088,172.273831 C300.457436,169.489594 302.638803,167.555243 305.671188,166.469846 C308.702653,165.385381 311.584154,165.485915 314.315693,166.771449 C317.044471,168.056983 318.938792,170.21102 319.995894,173.236353 C321.025396,176.179769 320.883713,179.040338 319.572685,181.818059 L319.572685,181.818059 Z" id="Fill-3" fill="#FFAB45"></path>
                    <path d="M279.981204,18.4436114 C280.669396,18.4389076 281.258875,18.1707908 281.748712,17.635498 C282.239479,17.1002053 282.460185,16.4755402 282.410829,15.7586807 C282.362404,15.0437026 282.084892,14.4482012 281.577362,13.9740578 C281.025132,13.4566395 280.41144,13.2063972 279.734423,13.2205086 C279.058337,13.2355608 278.46327,13.521552 277.950153,14.079423 C277.460317,14.6147158 277.240542,15.2290324 277.288036,15.9214322 C277.336461,16.6166543 277.625147,17.2102742 278.154096,17.7060551 C278.683976,18.2018359 279.293943,18.4473744 279.981204,18.4436114 L279.981204,18.4436114 Z M287.993658,15.4096585 C288.07747,17.6279719 287.33061,19.5979246 285.751214,21.3185757 C284.17368,23.0392269 282.281385,23.9470608 280.07526,24.0411369 C277.869134,24.1380352 275.949833,23.4211757 274.314562,21.8914989 C272.681154,20.3608815 271.8272,18.4821826 271.754563,16.2516392 C271.680994,14.0239181 272.434373,12.0483209 274.012838,10.326729 C275.590371,8.60701864 277.47801,7.70388848 279.672961,7.61922002 C281.868843,7.53549233 283.783488,8.25893723 285.416896,9.78861395 C287.052167,11.3192314 287.910777,13.1922858 287.993658,15.4096585 L287.993658,15.4096585 Z M267.205418,33 L264.404226,1.07340783 L267.828423,0 L270.663141,31.9576373 L267.205418,33 Z M255.231437,18.4182108 C255.919629,18.4153886 256.508177,18.1453903 256.998945,17.6100975 C257.489712,17.0757455 257.710418,16.4491989 257.661062,15.7332801 C257.611706,15.0173613 257.335125,14.4237414 256.828527,13.9486573 C256.276297,13.4321797 255.661673,13.1809966 254.984656,13.195108 C254.307639,13.2101602 253.713503,13.4961514 253.201317,14.0540225 C252.71055,14.5893152 252.489844,15.2045727 252.538269,15.8960317 C252.586694,16.590313 252.875381,17.1848737 253.404329,17.6806545 C253.934209,18.1764354 254.543245,18.4229146 255.231437,18.4182108 L255.231437,18.4182108 Z M263.244822,15.3851987 C263.327703,17.6016307 262.57898,19.5715833 261.001447,21.2912937 C259.422982,23.0119448 257.531619,23.9216603 255.325493,24.0176179 C253.119368,24.1126347 251.200066,23.3967159 249.565727,21.8660984 C247.931387,20.3364217 247.077433,18.456782 247.004796,16.2281202 C246.932159,13.9985176 247.684607,12.0238611 249.263071,10.3022692 C250.841536,8.58255887 252.718,7.66908034 254.8906,7.56371515 C257.06227,7.4574092 258.98809,8.19120246 260.66806,9.76321341 C262.3024,11.2928901 263.16101,13.1668852 263.244822,15.3851987 L263.244822,15.3851987 Z" id="Fill-5" fill="#FFAB45"></path>
                    <polygon id="Fill-7" fill="#FFAB45" points="282.684857 109 271.802188 107.088292 267.358148 97.7595988 259.881728 104.99289 249 103.081182 263.299278 89.2459896 255.078888 72 265.959674 73.9117082 270.123077 82.6422423 277.118272 75.8723399 288 77.7849712 274.180064 91.1576978"></polygon>
                    <polygon id="Fill-9" fill="#FFAB45" points="335 91.6616268 333.395931 100.607777 323.172124 98.7755582 321.338903 109 312.39248 107.39598 314.225701 97.1705916 304 95.3383732 305.604069 86.3922233 315.82977 88.2253887 317.662044 78 326.609414 79.6049666 324.776193 89.8284615"></polygon>
                    <polygon id="Fill-11" fill="#FFAB45" points="367.637458 79 376 80.5577807 368.503983 124 358.946539 122.219679 364.632501 89.265352 356.862099 89.9964238 356 81.0598753"></polygon>
                    <g id="Group-15" transform="translate(392.000000, 96.000000)">
                        <mask id="mask-2" fill="white">
                            <use xlink:href="#path-1"></use>
                        </mask>
                        <g id="Clip-14"></g>
                        <path d="M2.89513714,9.57861333 L4.49233714,0.76048 L32.4914229,5.72861333 L30.89328,14.5467467 L2.89513714,9.57861333 Z M0.50028,22.8067467 L2.09653714,13.9886133 L30.0956229,18.9567467 L28.4984229,27.77488 L0.50028,22.8067467 Z" id="Fill-13" fill="#FFAB45" mask="url(#mask-2)"></path>
                    </g>
                    <path d="M48.9586979,191 L47.1757012,185.349553 L54.8015695,169.830245 C56.3455312,166.726571 56.8570847,164.347336 56.33437,162.690671 C55.9958146,161.618986 55.3986921,160.854299 54.5439326,160.393802 C53.688243,159.935177 52.6958291,159.88557 51.5666909,160.246855 C49.3074844,160.967551 48.0351112,162.732789 47.7477111,165.541633 L40,163.779203 C40.2632176,161.015285 41.2295887,158.66881 42.8953931,156.741649 C44.5602674,154.81636 46.619503,153.462013 49.0730998,152.67767 C52.2354309,151.667759 55.2480163,151.786628 58.1117861,153.034275 C60.9736957,154.283794 62.9278303,156.564751 63.9723296,159.876211 C65.094027,163.473141 64.4615608,167.606382 62.0758611,172.275933 L58.2419997,179.777727 L69.6338323,176.138678 L72,183.640473 L48.9586979,191 Z" id="Fill-16" fill="#FFAB45"></path>
                    <polygon id="Fill-18" fill="#FFAB45" points="98 174.920646 89.7232995 177.530104 83.1526468 172.576932 80.6581206 180.389619 72.3823488 183 77.1540821 168.054671 65 158.896655 73.2767005 156.286275 79.4285031 160.92203 81.7623617 153.609458 90.0390623 151 85.4289252 165.444291"></polygon>
                    <path d="M109.241519,162 L107.14473,155.424446 L127.903211,148.864234 L130,155.439788 L109.241519,162 Z M106.095882,152.135766 L104,145.559309 L124.758481,139 L126.85527,145.576457 L106.095882,152.135766 Z" id="Fill-20" fill="#FFAB45"></path>
                    <polygon id="Fill-22" fill="#FFAB45" points="170.718828 137.880785 173 145.031163 169.59971 146.10423 171.326456 151.515051 163.456228 154 161.729482 148.589179 146.281172 153.464395 144 146.314945 148.048053 121.638112 156.403637 119 152.354651 143.677762 159.447377 141.438801 157.133537 134.192813 165.004699 131.708792 167.317605 138.953852"></polygon>
                    <g id="Group-26" transform="translate(145.000000, 145.000000)">
                        <mask id="mask-4" fill="white">
                            <use xlink:href="#path-3"></use>
                        </mask>
                        <g id="Clip-25"></g>
                        <path d="M102.859566,4.3848 C100.457461,0.686030769 95.5187763,-0.360738462 91.8281184,2.04664615 C88.1393026,4.45403077 87.0948289,9.40356923 89.4960132,13.1014154 C89.7511447,13.4928 90.0394342,13.8491077 90.3461447,14.1804923 L68.2906184,46.4401846 C67.7812763,46.2084923 67.2424605,46.0229538 66.67325,45.9001846 C62.3700921,44.9688 58.1277237,47.7103385 57.1983816,52.0220308 C57.0989079,52.4798769 57.0510132,52.9358769 57.0316711,53.3872615 L15.9471974,60.8928 C14.9681184,58.5841846 12.9279868,56.7694154 10.2956184,56.1998769 C5.99153947,55.2675692 1.75009211,58.0091077 0.819828947,62.3217231 C-0.109513158,66.6352615 2.62509211,70.8869538 6.92917105,71.8183385 C11.23325,72.7506462 15.4746974,70.0091077 16.4049605,65.6955692 C16.5025921,65.2386462 16.5514079,64.7835692 16.5698289,64.3312615 L57.6552237,56.8257231 C58.6343026,59.1343385 60.6744342,60.9491077 63.3068026,61.5195692 C67.6108816,62.4509538 71.8523289,59.7103385 72.7825921,55.3968 C73.3260132,52.8768 72.6112763,50.3835692 71.0703553,48.5558769 L93.2216711,16.1577231 C95.5473289,17.0854154 98.2699605,16.9109538 100.526539,15.4395692 C104.217197,13.0321846 105.26075,8.08264615 102.859566,4.3848" id="Fill-24" fill="#FFAB45" mask="url(#mask-4)"></path>
                    </g>
                    <path d="M0.761690168,57.4010031 C2.63633733,61.4047147 7.37857864,63.1208557 11.3540442,61.2324523 C15.3285904,59.3440488 17.0313106,54.5670087 15.1566635,50.562371 C14.9580741,50.138198 14.7217894,49.7455138 14.46252,49.3741309 L40.6432225,20.3238366 C41.1157917,20.6239066 41.6232979,20.8804479 42.1694188,21.0804946 C46.2984234,22.5956628 50.8650602,20.4507181 52.369191,16.2904885 C52.5282464,15.8496449 52.6385738,15.4032445 52.7185612,14.9568441 L94.3644133,13.1138216 C95.0190228,15.5421658 96.791617,17.625059 99.3171961,18.551201 C103.44712,20.065443 108.013757,17.9204983 109.517888,13.7602687 C111.021099,9.60096526 108.891779,5.00081825 104.761855,3.48565004 C100.631931,1.97140797 96.0652947,4.1163527 94.5620833,8.27658229 C94.4030279,8.71742585 94.2927004,9.16290013 94.2136324,9.60930054 L52.566861,11.4541753 C51.9113321,9.02583112 50.1396572,6.9429379 47.6131588,6.01586982 C43.4841542,4.50162774 38.9175174,6.64564634 37.4133865,10.8058759 C36.535364,13.2360724 36.9040415,15.8125993 38.1792429,17.839924 L11.8863741,47.0161735 C9.71292348,45.7751433 6.99702956,45.5760228 4.5661482,46.7309218 C0.589763234,48.6202513 -1.11203759,53.3963653 0.761690168,57.4010031" id="Fill-27" fill="#FFAB45"></path>
                </g>
            </g>
        </g>
    </g>
</svg>