<?xml version="1.0" encoding="UTF-8"?>
<svg width="374px" height="192px" viewBox="0 0 374 192" version="1.1" xmlns="http://www.w3.org/2000/svg" xmlns:xlink="http://www.w3.org/1999/xlink">
    <!-- Generator: Sketch 53.2 (72643) - https://sketchapp.com -->
    <title>Group 33</title>
    <desc>Created with Sketch.</desc>
    <defs>
        <polygon id="path-1" points="0.332232074 0.998 48.90704 0.998 48.90704 44.9711239 0.332232074 44.9711239"></polygon>
        <polygon id="path-3" points="0 0.281580166 22.1653635 0.281580166 22.1653635 42.0740614 0 42.0740614"></polygon>
    </defs>
    <g id="Desktop" stroke="none" stroke-width="1" fill="none" fill-rule="evenodd">
        <g id="Khan-Academy" transform="translate(-495.000000, -1102.000000)">
            <g id="Group-33" transform="translate(495.000000, 1102.000000)">
                <g transform="translate(-6.000000, -13.000000)">
                    <path d="M132.7245,164.8127 L130.4475,172.2657 C130.0085,173.7027 128.1665,174.1957 126.9555,173.2007 L91.9025,144.4207 C91.2315,143.8707 90.9545,142.9997 91.1985,142.2047 L93.4935,134.6907 C93.7365,133.8957 94.4525,133.3287 95.3165,133.2467 L140.4695,128.9647 C142.0295,128.8177 143.2815,130.2557 142.8425,131.6917 L140.5425,139.2197 C140.2905,140.0447 139.5305,140.6227 138.6295,140.6707 L111.3915,142.1587 C109.4065,142.2667 108.6635,144.6627 110.2405,145.8737 L131.9615,162.5497 C132.6725,163.0947 132.9755,163.9927 132.7245,164.8127" id="Fill-1" fill="#45C6FF"></path>
                    <path d="M122.4061,187.6702 L84.2091,176.0012 C82.5311,175.4882 81.5771,173.6952 82.0901,172.0182 L83.6771,166.8212 C84.1901,165.1432 85.9821,164.1902 87.6601,164.7022 L125.8581,176.3712 C127.5361,176.8842 128.4891,178.6762 127.9761,180.3552 L126.3891,185.5512 C125.8771,187.2292 124.0841,188.1832 122.4061,187.6702" id="Fill-3" fill="#45C6FF"></path>
                    <path d="M293.786,196.8313 L297.88,202.1423 C298.668,203.1653 298.097,204.7033 296.796,205.0573 L259.145,215.3043 C258.425,215.5003 257.676,215.2613 257.239,214.6933 L253.113,209.3413 C252.677,208.7733 252.635,207.9883 253.008,207.3423 L272.502,173.5393 C273.176,172.3713 274.808,172.2103 275.597,173.2333 L279.731,178.5973 C280.184,179.1853 280.21,180.0063 279.796,180.6613 L267.268,200.5083 C266.355,201.9543 267.666,203.6683 269.3,203.1653 L291.819,196.2383 C292.556,196.0123 293.336,196.2473 293.786,196.8313" id="Fill-5" fill="#45C6FF"></path>
                    <g id="Group-11" transform="translate(262.000000, 0.002000)">
                        <mask id="mask-2" fill="white">
                            <use xlink:href="#path-1"></use>
                        </mask>
                        <g id="Clip-10"></g>
                        <path d="M2.6883,33.7248 L29.1443,27.3448 C31.0643,26.8818 31.3023,24.5158 29.5143,23.6758 L4.9663,12.1578 C4.1553,11.7768 3.6753,10.9888 3.7613,10.1748 L4.5403,2.7508 C4.6883,1.3348 6.3973,0.5518 7.7793,1.2658 L47.7723,21.9428 C48.5383,22.3378 48.9793,23.1018 48.8973,23.8858 L48.1203,31.2948 C48.0383,32.0788 47.4473,32.7338 46.6163,32.9618 L3.2033,44.8848 C1.7033,45.2968 0.1943,44.1758 0.3423,42.7598 L1.1143,35.4108 C1.1983,34.6018 1.8233,33.9328 2.6883,33.7248" id="Fill-9" fill="#45C6FF" mask="url(#mask-2)"></path>
                    </g>
                    <path d="M263.742,59.1936 L303.631,63.3796 C305.33,63.5566 306.866,62.3126 307.044,60.6136 L307.564,55.6516 C307.743,53.9526 306.499,52.4166 304.8,52.2376 L264.911,48.0526 C263.212,47.8746 261.676,49.1196 261.497,50.8186 L260.976,55.7806 C260.799,57.4796 262.043,59.0156 263.742,59.1936" id="Fill-12" fill="#45C6FF"></path>
                    <path d="M349.368,156.5422 L330.832,160.4722 C329.388,160.7782 327.968,159.8552 327.661,158.4102 L318.709,116.1852 C318.402,114.7392 319.325,113.3192 320.77,113.0142 L339.306,109.0832 C340.751,108.7772 342.171,109.7002 342.477,111.1452 L351.431,153.3702 C351.736,154.8152 350.813,156.2352 349.368,156.5422" id="Fill-14" fill="#45C6FF"></path>
                    <path d="M321.5633,162.4368 L302.0543,166.5738 C300.8783,166.8228 299.7223,166.0718 299.4723,164.8948 L293.7063,137.6938 C293.4563,136.5178 294.2083,135.3618 295.3843,135.1128 L314.8923,130.9758 C316.0693,130.7268 317.2253,131.4778 317.4743,132.6548 L323.2423,159.8558 C323.4913,161.0318 322.7403,162.1878 321.5633,162.4368" id="Fill-16" fill="#45C6FF"></path>
                    <path d="M377.2245,150.636 L359.5585,154.381 C357.8735,154.739 356.2175,153.662 355.8605,151.977 L343.4665,93.521 C343.1095,91.835 344.1855,90.179 345.8705,89.822 L363.5365,86.076 C365.2215,85.719 366.8775,86.796 367.2355,88.481 L379.6285,146.937 C379.9865,148.622 378.9105,150.279 377.2245,150.636" id="Fill-18" fill="#45C6FF"></path>
                    <path d="M18.5204,99.3538 L29.8384,101.7528 C30.7204,101.9408 31.5874,101.3768 31.7754,100.4948 L37.2424,74.7098 C37.4284,73.8288 36.8654,72.9608 35.9834,72.7738 L24.6644,70.3748 C23.7824,70.1868 22.9154,70.7508 22.7274,71.6328 L17.2604,97.4168 C17.0744,98.2998 17.6374,99.1668 18.5204,99.3538" id="Fill-20" fill="#45C6FF"></path>
                    <path d="M35.4989,102.9534 L47.4109,105.4784 C48.1299,105.6314 48.8349,105.1734 48.9869,104.4544 L52.5099,87.8454 C52.6619,87.1264 52.2029,86.4204 51.4839,86.2674 L39.5719,83.7424 C38.8529,83.5904 38.1469,84.0494 37.9949,84.7674 L34.4739,101.3774 C34.3209,102.0954 34.7799,102.8014 35.4989,102.9534" id="Fill-22" fill="#45C6FF"></path>
                    <g id="Group-26" transform="translate(0.000000, 56.002000)">
                        <mask id="mask-4" fill="white">
                            <use xlink:href="#path-3"></use>
                        </mask>
                        <g id="Clip-25"></g>
                        <path d="M1.5106,39.7453 L12.2976,42.0323 C13.3256,42.2503 14.3376,41.5933 14.5556,40.5633 L22.1236,4.8693 C22.3416,3.8403 21.6846,2.8283 20.6556,2.6103 L9.8676,0.3233 C8.8396,0.1053 7.8276,0.7633 7.6106,1.7913 L0.0416,37.4863 C-0.1764,38.5163 0.4816,39.5263 1.5106,39.7453" id="Fill-24" fill="#45C6FF" mask="url(#mask-4)"></path>
                    </g>
                    <path d="M240.8924,123.9045 L240.8924,96.7415 C240.8924,94.6585 239.7814,92.7335 237.9774,91.6925 L214.4534,78.1105 C212.6494,77.0695 210.4274,77.0695 208.6224,78.1105 L185.0994,91.6925 C183.2954,92.7335 182.1844,94.6585 182.1844,96.7415 L182.1844,123.9045 C182.1844,125.9875 183.2954,127.9115 185.0994,128.9535 L208.6224,142.5345 C210.4274,143.5765 212.6494,143.5765 214.4534,142.5345 L237.9774,128.9535 C239.7814,127.9115 240.8924,125.9875 240.8924,123.9045" id="Fill-27" fill="#45C6FF"></path>
                    <path d="M126.8221,44.2122 L126.8221,27.6902 C126.8221,26.4222 126.1461,25.2512 125.0501,24.6182 L110.7401,16.3572 C109.6421,15.7232 108.2911,15.7232 107.1931,16.3572 L92.8841,24.6182 C91.7871,25.2512 91.1111,26.4222 91.1111,27.6902 L91.1111,44.2122 C91.1111,45.4802 91.7871,46.6502 92.8841,47.2832 L107.1931,55.5452 C108.2911,56.1792 109.6421,56.1792 110.7401,55.5452 L125.0501,47.2832 C126.1461,46.6502 126.8221,45.4802 126.8221,44.2122" id="Fill-29" fill="#45C6FF"></path>
                    <path d="M33.6024,163.9495 L33.6024,152.4415 C33.6024,151.5585 33.1314,150.7435 32.3674,150.3035 L22.4014,144.5495 C21.6364,144.1075 20.6954,144.1075 19.9314,144.5495 L9.9654,150.3035 C9.2014,150.7435 8.7304,151.5585 8.7304,152.4415 L8.7304,163.9495 C8.7304,164.8325 9.2014,165.6475 9.9654,166.0885 L19.9314,171.8425 C20.6954,172.2835 21.6364,172.2835 22.4014,171.8425 L32.3674,166.0885 C33.1314,165.6475 33.6024,164.8325 33.6024,163.9495" id="Fill-31" fill="#45C6FF"></path>
                </g>
            </g>
        </g>
    </g>
</svg>